<?xml version="1.0" encoding="utf-8"?>
<!-- Generator: Adobe Illustrator 16.0.3, SVG Export Plug-In . SVG Version: 6.00 Build 0)  -->
<!DOCTYPE svg PUBLIC "-//W3C//DTD SVG 1.0//EN" "http://www.w3.org/TR/2001/REC-SVG-20010904/DTD/svg10.dtd">
<svg version="1.0" id="Layer_1" xmlns="http://www.w3.org/2000/svg" xmlns:xlink="http://www.w3.org/1999/xlink" x="0px" y="0px"
	 width="1000px" height="1000px" viewBox="0 0 1000 1000" enable-background="new 0 0 1000 1000" xml:space="preserve">
<g id="illustration">
	<path fill="#60504B" d="M523.3,868v46.8c0,48.8,55.4,50.3,55.4,4.5v-51.8L523.3,868z"/>
	<rect x="535.7" y="889.3" fill="#FFFFFF" width="30.6" height="4.4"/>
	<rect x="535.7" y="897.7" fill="#FFFFFF" width="30.6" height="4.399"/>
	<rect x="535.7" y="906.2" fill="#FFFFFF" width="30.6" height="4.399"/>
	<path fill="#60504B" d="M420,868v46.8c0,48.8,55.4,50.3,55.4,4.5v-51.8L420,868z"/>
	<path fill="#3D527F" d="M394.4,493.8c0,66.4,0,148.9,0,228.2c0,55.8,0,110,0,155.8c56.6,0,58.8,0,99.699,0
		c0-46.8,0-101.399,0-154.5c0-75.899,0-148.8,0-191.6c5.9,0,14.5,0,19.9,0c0,41.3,0,115.8,0,191.6c0,54.9,0,110.4,0,154.5
		c45,0,34.6,0,91.7,0c0-43,0-97.5,0-154.5c0-79.5,0-164,0-229.5H394.4L394.4,493.8z"/>
	<rect x="432.4" y="889.3" fill="#FFFFFF" width="30.6" height="4.4"/>
	<rect x="432.4" y="897.7" fill="#FFFFFF" width="30.6" height="4.399"/>
	<rect x="432.4" y="906.2" fill="#FFFFFF" width="30.6" height="4.399"/>
	<path fill="#ABD1D5" d="M376.9,509c0-47.3,6-116.9,31.1-167.4c8.4-16.8,18.9-31.5,32-42.5c15.7-13.2,35.3-21.2,59.4-21.2
		c26.1,0,46.899,9.2,63.399,24.3c10.3,9.4,19,21.2,26.2,34.4c27.5,50.4,34.5,122.5,34.5,172.4H376.9L376.9,509z"/>
	<line fill="none" x1="616.8" y1="509.6" x2="384" y2="509.6"/>
	<ellipse fill="#FFFFFF" cx="500.9" cy="304.3" rx="22" ry="16.3"/>
	<path fill="#F3AF9D" d="M843.8,326.2l17-6.8c0,0,6.101,5.5,13,11.2c6.9,5.7-4.7,18.4-15.3,10.6
		C847.8,333.4,843.8,326.2,843.8,326.2z"/>
	<path fill="#99AFB1" d="M285.8,267.1l3,56.8c58.9,0.3,93.5-2.3,119.3,17.7l48.7-50.2C402.5,264.7,341.8,263.7,285.8,267.1z"/>
	<path fill="#99AFB1" d="M545.7,290.4l43.3,53.2c27-16.2,67.7-16.3,126.6-16.7v-56.8C659.6,266.7,616.4,259.7,545.7,290.4z"/>
	<path fill="#F3AF9D" d="M291,273.7c-47.7,2.7-123.1,8.9-160.2,14.2c-37.1,5.3-40.1,40.1,5.3,39.5s95.2-3.5,159.7-12.1L291,273.7z"
		/>
	<path fill="#F3AF9D" d="M155.6,326.2l-17-6.8c0,0-6.1,5.5-13,11.2c-6.9,5.7,4.7,18.4,15.3,10.6
		C151.6,333.4,155.6,326.2,155.6,326.2z"/>
	<path fill="#F3AF9D" d="M709.7,318.3c64.5,8.6,113.3,11.5,158.7,12.1c45.399,0.6,42.399-34.2,5.3-39.5
		c-37.101-5.3-114.5-11.5-162.2-14.2L709.7,318.3z"/>
	<path fill="#F3AF9D" d="M489.5,211.9h20.9c0,0,4.3,67.3,5.699,90.8c-2.1,9.7-9.1,11.3-15.5,11.1c-8.199-0.2-15.899-4.7-17.1-12.5
		L489.5,211.9z"/>
	<path fill="#DD9B8E" d="M489.5,211.9h20.9c1.899,19-21.601,89.4-26.801,89.4L489.5,211.9z"/>
	<path fill-rule="evenodd" clip-rule="evenodd" d="M554.611,167.23c1.531,0.169,2.932,0.242,4.298,0.498
		c1.747,0.327,2.728,1.691,3.568,3.088c1.76,2.923,2.733,6.049,3.011,9.516c0.407,5.085-0.25,9.947-2.199,14.605
		c-1.744,4.17-4.627,7.616-7.779,10.782c-0.98,0.986-2.451,1.542-3.775,2.108c-0.877,0.374-1.369,0.77-1.525,1.774
		c-0.678,4.355-2.502,8.192-5.428,11.503c-0.643,0.729-1.126,1.616-1.836,2.263c-1.095,0.996-2.221,2.037-3.512,2.719
		c-2.502,1.319-5.096,2.479-7.715,3.549c-1.258,0.514-2.656,0.685-3.996,0.99c-1.482,0.336-2.648,1.076-3.559,2.337
		c-1.857,2.575-4.611,4.043-7.265,5.607c-4.679,2.759-9.924,3.955-15.095,5.319c-0.98,0.259-2.103,0.149-3.136,0.021
		c-5.802-0.727-11.424-2.094-16.406-5.305c-1.486-0.958-2.733-2.284-4.103-3.425c-0.272-0.227-0.604-0.545-0.907-0.545
		c-4.135-0.002-7.385-2.284-10.715-4.238c-4.3-2.523-8.046-5.751-11.256-9.593c-2.427-2.906-3.786-6.296-4.704-9.911
		c-0.176-0.695-0.443-1.368-0.669-2.056c-4.698,1.452-7.684-1.281-10.536-4.093c-4.473-4.411-6.729-9.987-7.811-16.048
		c-0.886-4.964-0.116-9.86,1.821-14.433c1.338-3.159,4.103-5.037,7.523-5.782c0.111-0.024,0.209-0.111,0.462-0.252
		c-0.555-0.879-1.252-1.686-1.613-2.621c-0.68-1.761-1.44-3.562-1.677-5.408c-0.495-3.854-0.837-7.746-0.934-11.629
		c-0.122-4.9,0.933-9.665,2.104-14.415c0.928-3.76,2.113-7.41,3.88-10.833c1.016-1.968,2.232-3.896,3.673-5.571
		c5.028-5.845,10.149-11.612,15.327-17.325c2.202-2.43,5.143-3.851,8.034-5.334c5.559-2.854,11.458-4.732,17.444-6.389
		c0.582-0.161,1.196-0.236,1.8-0.283c3.72-0.292,7.44-0.756,11.165-0.804c6.523-0.084,12.854,1.358,18.953,3.496
		c4.341,1.521,8.492,3.613,12.646,5.625c2.765,1.339,5.45,2.876,8.036,4.534c1.865,1.196,3.707,2.554,5.212,4.164
		c3.208,3.434,6.36,6.947,9.217,10.672c3.041,3.964,4.919,8.539,5.954,13.468c1.307,6.223,1.207,12.415-0.139,18.594
		c-0.826,3.795-1.662,7.599-2.741,11.327c-0.649,2.242-1.78,4.345-2.683,6.515C554.85,166.434,554.729,166.882,554.611,167.23z
		 M500.541,135.702c0-0.111,0-0.222,0-0.333c-2.394,0-4.789-0.026-7.182,0.009c-1.826,0.027-3.684-0.062-5.469,0.242
		c-4.033,0.685-8.054,1.483-12.037,2.416c-5.557,1.302-10.923,3.085-15.514,6.7c-3.128,2.462-5.117,5.209-5.169,9.557
		c-0.078,6.435,0.963,12.689,1.992,18.96c0.543,3.311,1.618,6.532,2.325,9.82c0.686,3.188-0.595,5.238-3.698,6.1
		c-0.694,0.193-1.065,0.5-1.13,1.202c-0.037,0.403-0.083,0.808-0.157,1.206c-0.343,1.826-0.802,3.758-2.475,4.688
		c-1.134,0.631-1.378,1.348-1.365,2.381c0.029,2.269,0.17,4.537,0.152,6.806c-0.03,3.667,0.966,7.088,2.626,10.274
		c2.99,5.741,7.594,9.997,13.175,13.123c2.81,1.574,5.838,2.796,8.856,3.943c1.372,0.522,2.701,0.56,3.941,1.835
		c2.389,2.458,5.373,4.177,8.701,5.396c8.878,3.254,17.324,1.874,25.629-1.877c3.501-1.581,6.704-3.681,9.562-6.219
		c1.914-1.702,4.115-2.453,6.519-2.899c0.358-0.067,0.718-0.144,1.065-0.251c6.22-1.922,11.055-5.741,14.662-11.066
		c4.006-5.914,4.148-12.657,3.764-19.459c-0.016-0.241-0.193-0.615-0.382-0.681c-2.603-0.916-3.268-3.183-3.913-5.483
		c-0.094-0.336-0.283-0.66-0.486-0.948c-0.434-0.616-1.035-1.146-1.338-1.815c-1.85-4.083-1.609-8.391-1.144-12.682
		c0.414-3.815,1.022-7.609,1.466-11.421c0.105-0.909-0.141-1.853-0.171-2.783c-0.089-2.715-0.128-5.433-0.236-8.148
		c-0.048-1.19-0.324-2.3-1.306-3.159c-1.096-0.96-2.066-2.066-3.166-3.022c-2.172-1.887-4.334-3.793-6.613-5.545
		c-3.059-2.352-6.592-3.711-10.279-4.829c-3.682-1.115-7.383-1.929-11.217-2.021C507.201,135.639,503.871,135.702,500.541,135.702z
		 M449.511,155.37c0.127,0.037,0.254,0.073,0.381,0.109c0.26-0.39,0.539-0.77,0.777-1.173c0.701-1.187,1.169-2.601,2.115-3.535
		c2.648-2.613,5.335-5.237,8.307-7.455c2.242-1.674,4.833-3.046,7.471-3.982c3.841-1.362,7.861-2.225,11.812-3.275
		c3.975-1.057,8.021-1.682,12.138-1.662c4.258,0.021,8.515,0.153,12.773,0.246c3.156,0.069,6.332-0.042,9.467,0.27
		c7.12,0.707,13.742,2.995,19.357,7.504c3.498,2.811,6.646,6.06,9.928,9.137c0.455,0.427,0.777,0.996,1.161,1.498
		c0.12-0.089,0.239-0.178,0.358-0.268c0.055-0.264,0.158-0.528,0.156-0.792c-0.05-3.941-0.072-7.906-1.254-11.702
		c-0.939-3.013-1.945-6.06-4.33-8.335c-3.93-3.748-8.547-6.476-13.523-8.509c-4.082-1.668-8.295-3.011-12.693-3.74
		c-4.335-0.718-8.66-1.41-13.066-1.076c-4.853,0.368-9.699,0.809-14.544,1.243c-6.395,0.573-12.494,2.326-17.97,5.619
		c-4.535,2.727-8.828,5.897-13.018,9.143c-2.354,1.824-4.516,3.963-4.725,7.399c-0.123,2.029-0.907,4.013-1.305,6.034
		C448.801,150.521,449.01,152.958,449.511,155.37z M500.867,88.97c0.003,0.08,0.006,0.16,0.01,0.24
		c0.148,0.051,0.293,0.121,0.445,0.15c6.375,1.21,11.952,3.999,16.752,8.374c1.945,1.773,3.59,3.785,4.729,6.135
		c1.93,3.973,1.139,7.846-0.861,11.539c-0.688,1.27-1.666,2.385-2.536,3.552c-0.521,0.696-0.358,1.054,0.458,1.294
		c1.555,0.457,3.096,0.958,4.634,1.467c6.153,2.038,11.726,5.123,16.606,9.395c0.898,0.787,1.76,1.73,2.316,2.772
		c1.941,3.635,3.283,7.475,3.685,11.627c0.261,2.686,0.433,5.349-0.488,7.928c-0.247,0.694-0.243,1.176,0.108,1.799
		c1.801,3.175,3.602,6.35,4.581,9.913c0.28,1.018,0.751,1.984,1.134,2.974c0.131-0.004,0.26-0.009,0.389-0.014
		c0.729-1.512,1.591-2.976,2.159-4.547c1.103-3.043,2.201-6.104,3.013-9.232c1.896-7.31,3.107-14.699,1.649-22.274
		c-0.872-4.53-2.045-8.963-4.728-12.8c-2.205-3.153-4.375-6.366-6.919-9.234c-2.352-2.651-4.959-5.192-7.845-7.227
		c-5.852-4.126-12.297-7.251-18.977-9.831c-6.318-2.44-12.853-3.955-19.656-4.125C501.307,88.838,501.087,88.926,500.867,88.97z
		 M487.36,90.245c-0.033-0.098-0.067-0.195-0.101-0.292c-0.297,0.028-0.607,0.01-0.89,0.091c-1.831,0.524-3.697,0.961-5.473,1.634
		c-3.331,1.261-6.622,2.633-9.898,4.034c-0.617,0.263-1.051,0.924-1.631,1.309c-1.747,1.158-3.802,1.998-5.239,3.453
		c-4.444,4.498-8.759,9.135-12.92,13.896c-2.337,2.674-4.557,5.536-6.302,8.613c-1.478,2.606-2.309,5.607-3.224,8.497
		c-1.458,4.605-2.602,9.284-3.008,14.133c-0.372,4.446,0.186,8.832,0.474,13.245c0.227,3.479,1.569,6.441,3.718,9.077
		c0.456,0.56,1.24,0.851,1.656,1.125c1.365-3.687,2.597-7.151,3.946-10.57c0.364-0.922,0.551-1.73,0.206-2.677
		c-1.425-3.917-0.333-7.933-0.349-11.898c-0.005-1.143,0.634-2.348,1.183-3.421c1.772-3.467,4.48-6.166,7.574-8.423
		c3.143-2.294,6.364-4.514,9.727-6.466c2.678-1.555,5.607-2.686,8.452-3.943c1.09-0.482,2.256-0.792,3.475-1.209
		c-0.217-0.411-0.345-0.61-0.434-0.826c-1.182-2.881-2.649-5.686-3.462-8.668c-0.982-3.6-1.085-7.368,0.736-10.823
		c2.349-4.455,6.117-7.373,10.692-9.325C486.644,90.646,486.997,90.433,487.36,90.245z M479.933,120.185
		c2.015-0.396,3.827-0.855,5.668-1.089c2.372-0.301,4.783-0.304,7.148-0.639c7.959-1.125,15.859-0.838,23.708,0.837
		c0.769,0.163,1.289,0.012,1.701-0.545c0.938-1.271,1.977-2.498,2.705-3.885c1.043-1.984,1.66-4.138,1.573-6.432
		c-0.134-3.555-1.979-6.291-4.293-8.759c-3.987-4.252-8.868-7.23-14.45-8.661c-8.902-2.281-17.18-1.188-24.246,5.449
		c-4.925,4.625-4.879,10.789-2.986,16.322C477.332,115.332,478.744,117.693,479.933,120.185z M444.367,180.745
		c-0.463-1.509-1.557-2.292-2.683-2.976c-2.31-1.404-4.265-0.815-5.375,1.645c-0.407,0.903-0.563,1.927-0.779,2.908
		c-0.147,0.668-0.198,1.357-0.326,2.288c-1.323-2.172-0.771-5.885,1.097-7.32c0.982-0.754,2.277-1.41,3.479-1.505
		c2.806-0.223,4.48,1.758,6.017,4.004c0.154-0.364,0.273-0.507,0.261-0.637c-0.206-2.168-0.21-4.388-0.719-6.485
		c-0.388-1.601-1.752-2.693-3.494-2.928c-2.67-0.36-6.047,1.775-7.239,4.602c-1.458,3.454-2.212,7.112-1.922,10.826
		c0.654,8.396,3.712,15.634,10.729,20.818c1.439,1.063,2.998,1.595,4.717,1.701c1.458,0.09,1.831-0.384,1.816-1.871
		c-0.027-2.754,0.006-5.509-0.069-8.261c-0.011-0.398-0.44-0.828-0.76-1.163c-0.649-0.682-1.631-1.19-1.975-1.987
		c-0.519-1.202-0.574-2.598-0.887-3.897c-0.549-2.279,0.537-4.727-0.874-6.958c-0.534-0.844-1.028-1.292-1.971-1.245
		c-1.667,0.082-2.541,1.21-3.044,2.585c-0.936,2.553-0.961,5.158-0.116,7.764c0.263,0.809,0.438,1.647,0.652,2.473
		c-2.039-1.931-2.887-4.234-2.624-6.985C438.644,184.312,440.095,181.416,444.367,180.745z M453.938,152.778
		c-0.863,0.593-1.697,0.859-1.974,1.407c-1.878,3.714-3.801,7.422-5.369,11.27c-0.816,2-1.375,4.3,0.25,6.362
		c0.162,0.206,0.228,0.53,0.241,0.804c0.182,3.835,0.672,7.692,0.416,11.5c-0.219,3.252,0.115,6.358,0.706,9.495
		c0.229,1.213,1.306,1.543,2.228,1.829c0.491,0.152,1.346-0.108,1.724-0.49c1.358-1.379,1.263-3.271,1.439-5.029
		c0.121-1.205-1.246-1.098-1.773-1.761c-0.224-0.282-0.555-0.481-0.775-0.766c-0.621-0.799-0.695-1.649-0.267-2.5
		c1.324,1.685,1.363,1.604,3.971,2.898c0.929,0.461,1.522,0.263,2.198-0.238c1.369-1.016,1.502-2.423,1.167-3.937
		c-0.851-3.836-1.753-7.662-2.574-11.505c-0.303-1.417-0.47-2.867-0.64-4.309c-0.344-2.931-0.724-5.86-0.941-8.801
		C453.823,157.086,453.938,155.145,453.938,152.778z M561.14,179.108c-0.11,0.035-0.22,0.07-0.329,0.104
		c-0.12-0.19-0.268-0.37-0.357-0.573c-0.459-1.039-0.866-2.103-1.363-3.124c-0.625-1.286-1.283-1.536-2.215-0.508
		c-0.973,1.073-1.649,2.446-2.305,3.764c-0.367,0.74-0.207,1.483,0.793,1.823c0.376,0.128,0.814,0.515,0.936,0.879
		c0.592,1.787,1.12,3.597,1.594,5.419c0.137,0.524,0.021,1.114,0.021,1.674c-0.129,0.018-0.256,0.037-0.385,0.055
		c-0.266-0.528-0.57-1.042-0.787-1.588c-0.58-1.468-1.084-2.968-1.711-4.415c-0.158-0.368-0.668-0.583-1.016-0.869
		c-0.229,0.474-0.647,0.947-0.646,1.421c0,1.17,0.191,2.34,0.309,3.51c0.262,2.601,0.254,5.209-0.523,7.708
		c-0.301,0.966-1.194,1.74-1.764,2.635c-0.269,0.421-0.555,0.915-0.58,1.389c-0.047,0.916,0.12,1.84,0.133,2.763
		c0.025,1.85,0.007,3.701,0.007,5.919c1.02-0.468,1.876-0.709,2.552-1.199c2.842-2.062,4.771-4.951,6.682-7.805
		c1.895-2.834,2.911-6.022,3.306-9.439c0.666-5.767,0.622-11.374-2.274-16.676c-1.629-2.981-4.747-4.178-7.784-2.629
		c-0.278,0.143-0.571,0.574-0.581,0.879c-0.057,1.906-0.054,3.815-0.027,5.723c0.008,0.535,0.164,1.067,0.301,1.897
		c0.683-1.23,1.148-2.202,1.734-3.094c0.811-1.235,2.445-1.889,3.698-1.604c1.513,0.345,2.06,1.486,2.275,2.837
		C560.996,177.016,561.041,178.067,561.14,179.108z M544.469,154.068c-0.104,0.553-0.174,0.734-0.168,0.913
		c0.077,2.555-0.004,5.128,0.287,7.659c0.491,4.267-0.091,8.427-0.936,12.561c-0.668,3.272-0.74,6.534-0.198,9.79
		c0.242,1.451,0.853,2.862,1.448,4.225c0.438,1.005,1.375,1.08,2.18,0.331c0.268-0.248,0.521-0.509,0.781-0.765
		c0.115,0.085,0.232,0.17,0.348,0.254c-0.313,0.518-0.508,1.21-0.963,1.518c-0.85,0.575-0.767,1.229-0.512,1.997
		c0.219,0.653,0.309,1.417,0.715,1.922c0.525,0.653,1.234,1.348,1.998,1.574c1.174,0.347,1.875-0.371,2.361-1.866
		c0.799-2.467,0.488-4.963,0.307-7.473c-0.361-4.967-1.164-9.9-0.762-14.927c0.141-1.763-0.471-3.592-0.783-5.382
		c-0.066-0.387-0.225-0.918-0.51-1.077c-1.064-0.591-0.869-1.643-1.096-2.545c-0.107-0.429-0.141-0.897-0.338-1.279
		c-0.913-1.762-1.861-3.506-2.82-5.245C545.452,155.604,545.037,154.989,544.469,154.068z"/>
	<path fill="#72605A" d="M499,113c-27,0-89,8-56,64c24.8,42.1,88,44,110,3S549,113,499,113z"/>
	<circle fill="#DF7977" cx="560.2" cy="182.8" r="12.1"/>
	<circle fill="#DF7977" cx="437.6" cy="182.8" r="12.1"/>
	<ellipse fill="#F3AF9D" cx="499.8" cy="177.4" rx="57" ry="57.6"/>
	<g>
		<path id="rightMiddleLip_2_" d="M487.5,209.6c0.3,0,0.5,0.3,0.5,0.5c0,0.2-0.3,0.5-0.5,0.5c-0.3,0-0.5-0.3-0.5-0.5
			C487,209.9,487.3,209.6,487.5,209.6z"/>
		<circle id="upperLipBottomMid_1_" cx="499.3" cy="209.9" r="0.5"/>
		<circle id="rightUpperLipBottom1_1_" cx="496.8" cy="209.6" r="0.5"/>
		<path id="leftMiddleLip_2_" d="M511.1,209.6c0.301,0,0.5,0.3,0.5,0.5c0,0.2-0.3,0.5-0.5,0.5c-0.199,0-0.5-0.3-0.5-0.5
			C510.6,209.9,510.8,209.6,511.1,209.6z"/>
		<circle id="leftUpperLipBottom1_1_" cx="501.8" cy="209.6" r="0.5"/>
		<path fill="#DF7977" stroke="#DF7977" stroke-width="2" stroke-miterlimit="10" d="M488,210.1c0,0,7.7-0.1,11.3-0.1
			c3.601,0,11.9-0.1,11.9-0.1s-6.9,2.6-11.9,2.6C494.2,212.5,488,210.1,488,210.1z"/>
		<circle id="lowerLipTopMid_2_" cx="499.3" cy="211.9" r="0.5"/>
		<circle id="rightLowerLipTop0_2_" cx="496.8" cy="211.4" r="0.5"/>
		<circle id="leftLowerLipTop0_2_" cx="501.8" cy="211.4" r="0.5"/>
	</g>
	<g>
		<ellipse fill="#DF7977" cx="464.1" cy="196.5" rx="7.801" ry="6.2"/>
		<ellipse fill="#2C323A" cx="464" cy="180.6" rx="3.6" ry="5.8"/>
		<circle id="rightEye0_1_" cx="468.6" cy="160.2" r="0.8"/>
		<circle id="rightEye1_1_" cx="473.8" cy="156.5" r="0.8"/>
		<circle id="rightEye5_1_" cx="473.8" cy="162.5" r="0.8"/>
		<circle id="rightEye2_1_" cx="480.1" cy="156.5" r="0.8"/>
		<circle id="rightEye3_1_" cx="485.3" cy="160.7" r="0.8"/>
		<circle id="rightEye4_1_" cx="480.1" cy="161.7" r="0.8"/>
	</g>
	<g>
		<ellipse fill="#2C323A" cx="532.8" cy="179.6" rx="3.601" ry="5.8"/>
		<ellipse fill="#DF7977" cx="533.2" cy="196.5" rx="7.8" ry="6.2"/>
		<circle id="leftEye0_1_" cx="528.2" cy="160.2" r="0.8"/>
		<circle id="leftEye1_1_" cx="523" cy="156.5" r="0.8"/>
		<circle id="leftEye5_1_" cx="523" cy="162.5" r="0.8"/>
		<circle id="leftEye2_1_" cx="516.7" cy="156.5" r="0.8"/>
		<circle id="leftEye3_1_" cx="511.5" cy="160.7" r="0.8"/>
		<circle id="leftEye4_1_" cx="516.7" cy="161.7" r="0.8"/>
	</g>
	<g>
		<path fill="#2C323A" d="M518.8,159.9c10.7-5,14.2-5,19.2,0.7C533,159.9,532.3,163.4,518.8,159.9z"/>
		<circle id="leftBrow1_1_" cx="530.1" cy="148.7" r="0.8"/>
		<circle id="leftBrow4_1_" cx="506.5" cy="150.8" r="0.8"/>
		<circle id="leftBrow3_1_" cx="516.5" cy="147.6" r="0.8"/>
		<circle id="leftBrow0_1_" cx="534.1" cy="151.6" r="0.8"/>
		<circle id="leftBrow2_1_" cx="523.8" cy="147.2" r="0.8"/>
	</g>
	<g>
		<path fill="#2C323A" d="M478,159.9c-10.7-5-14.2-5-19.2,0.7C463.8,159.9,464.5,163.4,478,159.9z"/>
		<circle id="rightBrow1_1_" cx="466.4" cy="148.3" r="0.8"/>
		<circle id="rightBrow4_1_" cx="489.7" cy="151.3" r="0.8"/>
		<circle id="rightBrow3_1_" cx="479.9" cy="147.3" r="0.8"/>
		<circle id="rightBrow0_1_" cx="462.4" cy="152" r="0.8"/>
		<circle id="rightBrow2_1_" cx="472.6" cy="147.3" r="0.8"/>
	</g>
	<path fill-rule="evenodd" clip-rule="evenodd" fill="#FFFFFF" d="M479.933,120.185c-1.188-2.492-2.601-4.854-3.472-7.401
		c-1.893-5.533-1.939-11.696,2.986-16.322c7.066-6.637,15.344-7.73,24.246-5.449c5.582,1.43,10.463,4.409,14.45,8.661
		c2.313,2.468,4.159,5.204,4.293,8.759c0.087,2.293-0.53,4.448-1.573,6.432c-0.729,1.387-1.768,2.614-2.705,3.885
		c-0.412,0.557-0.933,0.708-1.701,0.545c-7.849-1.675-15.748-1.962-23.708-0.837c-2.366,0.334-4.777,0.338-7.148,0.639
		C483.76,119.33,481.948,119.789,479.933,120.185z M514.592,114.62c0.156-0.07,0.378-0.108,0.51-0.238
		c1.21-1.186,2.373-2.418,3.613-3.57c0.646-0.601,0.673-1.174,0.182-1.806c-0.869-1.12-1.82-2.178-2.655-3.321
		c-2.297-3.139-4.54-6.318-6.832-9.46c-0.593-0.813-1.288-1.797-2.458-1.197c-1.024,0.526-2.031,1.233-2.797,2.085
		c-1.762,1.958-3.399,4.031-5.028,6.104c-0.66,0.84-1.257,0.875-2.024,0.219c-2.307-1.977-4.667-3.895-6.923-5.928
		c-1.626-1.467-3.402-1.115-4.173,0.955c-0.141,0.379-0.337,0.736-0.502,1.106c-1.917,4.297-3.852,8.586-5.717,12.906
		c-0.146,0.341,0.044,1.108,0.333,1.306c1.185,0.813,2.433,1.557,3.729,2.176c0.809,0.386,1.667-0.287,1.806-1.208
		c0.071-0.479,0.136-0.966,0.287-1.423c0.76-2.312,1.533-4.619,2.332-6.917c0.335-0.963,0.746-1.899,1.231-3.126
		c0.617,0.808,1,1.37,1.442,1.878c1.887,2.165,3.738,4.365,5.712,6.448c0.935,0.986,1.564,0.758,2.351-0.317
		c2.011-2.748,4.075-5.457,6.114-8.184c0.479-0.641,0.979-0.835,1.557-0.117c1.244,1.544,2.607,3.008,3.705,4.649
		C511.87,109.855,513.15,112.204,514.592,114.62z"/>
	<path fill="#72605A" d="M456,138c1.9,7.7,62.3,20.7,82-3c10-12,9-22,4-25c-4.4-2.6-9-6-22,6c-1-9,1-15-16-17
		C476.2,95.7,451.6,120,456,138z"/>
	<g>
		<path fill="#2C323A" stroke="#2C323A" stroke-width="2" stroke-miterlimit="10" d="M496.4,185.8c-1.2,0-4.601,1.6-5.801,5.2
			c-0.199,1.2,0.601,5.8,6,4.1c-0.1-1-4.699-1.1-4.5-3.7C492.4,189.6,494.1,189.6,496.4,185.8z"/>
		<circle id="nose1_1_" cx="497.6" cy="161.2" r="0.8"/>
		<circle id="nose0_1_" cx="497.6" cy="155.4" r="0.8"/>
		<circle id="nose3_1_" cx="497.6" cy="173.8" r="0.8"/>
		<circle id="rightNose0_1_" cx="486.9" cy="178.3" r="0.8"/>
		<circle id="rightNose1_1_" cx="492.1" cy="178.3" r="0.8"/>
		<circle id="nose2_1_" cx="497.6" cy="166.7" r="0.8"/>
		<circle id="nose4_1_" cx="497.6" cy="179.1" r="0.8"/>
		<circle id="leftNose0_1_" cx="508" cy="178.3" r="0.8"/>
		<circle id="leftNose1_1_" cx="503.2" cy="178.3" r="0.8"/>
	</g>
</g>
<path fill-rule="evenodd" clip-rule="evenodd" fill="#FFFFFF" stroke="#000000" stroke-miterlimit="10" d="M500.541,135.702
	c3.33,0,6.66-0.063,9.988,0.017c3.834,0.092,7.535,0.906,11.217,2.021c3.688,1.118,7.221,2.478,10.279,4.829
	c2.279,1.752,4.441,3.659,6.613,5.545c1.1,0.956,2.07,2.062,3.166,3.022c0.981,0.859,1.258,1.969,1.306,3.159
	c0.108,2.715,0.147,5.433,0.236,8.148c0.03,0.93,0.276,1.874,0.171,2.783c-0.443,3.813-1.052,7.606-1.466,11.421
	c-0.466,4.292-0.706,8.599,1.144,12.682c0.303,0.669,0.904,1.199,1.338,1.815c0.203,0.289,0.393,0.612,0.486,0.948
	c0.646,2.3,1.311,4.567,3.913,5.483c0.188,0.066,0.366,0.44,0.382,0.681c0.385,6.802,0.242,13.545-3.764,19.459
	c-3.607,5.326-8.442,9.145-14.662,11.066c-0.348,0.108-0.707,0.185-1.065,0.251c-2.403,0.446-4.604,1.197-6.519,2.899
	c-2.857,2.538-6.061,4.638-9.562,6.219c-8.306,3.751-16.751,5.131-25.629,1.877c-3.328-1.219-6.312-2.939-8.701-5.396
	c-1.24-1.275-2.57-1.313-3.941-1.835c-3.018-1.147-6.046-2.37-8.856-3.943c-5.582-3.126-10.185-7.381-13.175-13.123
	c-1.66-3.186-2.656-6.607-2.626-10.274c0.019-2.269-0.123-4.537-0.152-6.806c-0.013-1.033,0.231-1.75,1.365-2.381
	c1.673-0.931,2.132-2.863,2.475-4.688c0.075-0.398,0.12-0.803,0.157-1.206c0.065-0.703,0.436-1.009,1.13-1.202
	c3.103-0.861,4.384-2.912,3.698-6.1c-0.708-3.289-1.782-6.509-2.325-9.82c-1.029-6.271-2.07-12.525-1.992-18.96
	c0.052-4.348,2.042-7.095,5.169-9.557c4.591-3.615,9.957-5.398,15.514-6.7c3.983-0.933,8.004-1.731,12.037-2.416
	c1.785-0.304,3.643-0.215,5.469-0.242c2.393-0.035,4.788-0.009,7.182-0.009C500.541,135.48,500.541,135.591,500.541,135.702z
	 M537.771,186.825c-1.977,2.062-3.801,4.06-5.73,5.949c-2.292,2.244-5.027,3.695-8.255,4.06c-0.325,0.037-0.694-0.308-1.043-0.475
	c0.206-0.375,0.321-0.943,0.636-1.092c1.892-0.899,3.334-2.275,4.459-4c2.01-3.08,2.289-6.581,2.097-10.081
	c-0.28-5.078-1.235-10.059-3.057-14.831c-0.721-1.892-1.491-3.8-3.292-4.991c-4.445-2.94-10.059-0.813-12.341,3.969
	c-2.128,4.46-2.563,9.27-2.315,14.148c0.049,0.983-0.158,1.389-1.211,1.045c-2.867-0.935-5.811-1.111-8.786-0.739
	c-2.208,0.276-4.426,0.523-6.606,0.956c-1.337,0.266-1.282,0.348-1.408-0.977c-0.388-4.071-0.694-8.163-1.365-12.19
	c-0.403-2.418-1.539-4.627-3.157-6.618c-1.957-2.408-5.747-2.745-7.807-1.952c-4.58,1.763-8.059,4.695-9.188,9.748
	c-0.716,3.208-1.27,6.463-0.714,9.745c0.623,3.673,1.241,7.365,2.217,10.952c0.79,2.9,2.227,5.531,5.654,6.226
	c0.252,0.051,0.577,0.696,0.522,1.002c-0.044,0.246-0.619,0.578-0.947,0.567c-4.867-0.167-9.061-1.701-11.81-6.027
	c-0.77-1.21-1.507-2.441-2.266-3.673c-0.419,0.88-0.829,1.664-1.171,2.475c-1.242,2.94-1.266,6.023-0.828,9.097
	c0.272,1.91,0.715,3.826,1.356,5.644c0.641,1.815,1.89,3.479,3.922,3.602c2.284,0.139,2.889,1.395,3.506,3.249
	c0.689,2.07,2.279,3.617,4.491,4.036c1.77,0.335,3.623,0.215,5.431,0.379c0.424,0.039,1.074,0.324,1.184,0.645
	c1.065,3.118,3.655,4.732,6.288,6.113c1.514,0.795,3.385,1.096,5.125,1.228c2.246,0.17,3.966-1.218,5.561-2.637
	c0.557-0.495,0.95-0.448,1.593-0.08c0.856,0.491,1.84,0.973,2.796,1.034c2.536,0.158,5.087,0.114,7.632,0.1
	c2.977-0.019,5.856-0.326,7.645-3.253c3.291,1.391,6.504,1.219,9.73-0.104c1.367-0.562,2.217-1.591,2.992-2.735
	c1.062-1.567,2.395-3.046,3.033-4.776c0.557-1.51,1.367-2.268,2.686-3.064c3.061-1.853,4.533-5.001,5.203-8.325
	c0.548-2.707,0.619-5.568,0.472-8.339C540.596,189.792,539.838,187.759,537.771,186.825z M532.148,157.091
	c-0.262-4.877-2.195-8.811-6.098-11.815c-3.434-2.645-6.766-2.446-9.684,0.781c-3.592,3.973-5.344,8.841-6.707,13.889
	c-0.23,0.856-0.375,1.746-0.453,2.629c-0.023,0.271,0.307,0.574,0.477,0.862c0.271-0.166,0.639-0.269,0.802-0.51
	c0.792-1.165,1.452-2.426,2.302-3.544c2.302-3.03,5.284-4.938,9.195-4.887c1.158,0.015,2.492,0.271,3.426,0.894
	c1.698,1.135,3.186,2.598,4.707,3.983c0.785,0.716,1.195,0.718,1.561-0.28C531.91,158.454,531.996,157.761,532.148,157.091z
	 M489.838,162.178c0.137-0.58,0.309-0.882,0.248-1.124c-0.267-1.045-0.459-2.146-0.942-3.092c-1.123-2.199-2.376-4.332-3.617-6.469
	c-1.259-2.168-2.533-4.283-4.431-6.041c-3.407-3.156-7.97-2.728-10.282,0.077c-0.487,0.591-0.845,1.286-1.304,1.902
	c-2.763,3.707-3.938,7.948-4.202,12.489c-0.032,0.557,0.14,1.126,0.234,1.813c2.926-2.961,6.111-5.072,9.837-6.23
	c5.073-1.577,9.03-0.832,12.494,3.732C488.515,160.081,489.058,161.003,489.838,162.178z"/>
<path fill-rule="evenodd" clip-rule="evenodd" fill="#FFFFFF" stroke="#000000" stroke-miterlimit="10" d="M449.511,155.37
	c-0.501-2.411-0.71-4.848-0.227-7.299c0.398-2.021,1.182-4.005,1.305-6.034c0.208-3.437,2.371-5.576,4.725-7.399
	c4.189-3.246,8.482-6.416,13.018-9.143c5.476-3.293,11.575-5.046,17.97-5.619c4.846-0.434,9.692-0.875,14.544-1.243
	c4.406-0.334,8.731,0.357,13.066,1.076c4.398,0.729,8.611,2.072,12.693,3.74c4.977,2.033,9.594,4.761,13.523,8.509
	c2.385,2.276,3.391,5.322,4.33,8.335c1.182,3.796,1.204,7.761,1.254,11.702c0.002,0.263-0.102,0.527-0.156,0.792
	c-0.119,0.089-0.238,0.178-0.358,0.268c-0.384-0.502-0.706-1.071-1.161-1.498c-3.281-3.077-6.43-6.327-9.928-9.137
	c-5.615-4.509-12.237-6.797-19.357-7.504c-3.135-0.312-6.311-0.201-9.467-0.27c-4.258-0.093-8.515-0.225-12.773-0.246
	c-4.116-0.021-8.163,0.604-12.138,1.662c-3.95,1.05-7.97,1.913-11.812,3.275c-2.638,0.936-5.229,2.308-7.471,3.982
	c-2.972,2.218-5.659,4.842-8.307,7.455c-0.946,0.934-1.415,2.348-2.115,3.535c-0.238,0.403-0.517,0.783-0.777,1.173
	C449.765,155.442,449.638,155.406,449.511,155.37z"/>
<path fill-rule="evenodd" clip-rule="evenodd" fill="#FFFFFF" stroke="#000000" stroke-miterlimit="10" d="M500.867,88.97
	c0.22-0.044,0.439-0.132,0.658-0.126c6.804,0.17,13.338,1.685,19.656,4.125c6.68,2.58,13.125,5.705,18.977,9.831
	c2.886,2.035,5.493,4.576,7.845,7.227c2.544,2.868,4.714,6.082,6.919,9.234c2.683,3.836,3.855,8.27,4.728,12.8
	c1.458,7.575,0.247,14.964-1.649,22.274c-0.812,3.128-1.91,6.189-3.013,9.232c-0.568,1.571-1.431,3.035-2.159,4.547
	c-0.129,0.005-0.258,0.009-0.389,0.014c-0.383-0.99-0.854-1.956-1.134-2.974c-0.979-3.563-2.78-6.737-4.581-9.913
	c-0.352-0.623-0.355-1.105-0.108-1.799c0.921-2.579,0.749-5.242,0.488-7.928c-0.401-4.152-1.743-7.992-3.685-11.627
	c-0.557-1.042-1.418-1.986-2.316-2.772c-4.881-4.271-10.453-7.357-16.606-9.395c-1.538-0.509-3.079-1.01-4.634-1.467
	c-0.816-0.24-0.979-0.598-0.458-1.294c0.87-1.167,1.849-2.282,2.536-3.552c2-3.693,2.791-7.565,0.861-11.539
	c-1.139-2.35-2.783-4.362-4.729-6.135c-4.8-4.375-10.377-7.164-16.752-8.374c-0.152-0.029-0.297-0.099-0.445-0.15
	C500.873,89.13,500.87,89.05,500.867,88.97z"/>
<path fill-rule="evenodd" clip-rule="evenodd" fill="#FFFFFF" stroke="#000000" stroke-miterlimit="10" d="M487.36,90.245
	c-0.363,0.188-0.716,0.401-1.092,0.562c-4.575,1.952-8.343,4.87-10.692,9.325c-1.822,3.455-1.719,7.223-0.736,10.823
	c0.813,2.982,2.28,5.787,3.462,8.668c0.088,0.216,0.216,0.416,0.434,0.826c-1.219,0.418-2.385,0.728-3.475,1.209
	c-2.845,1.257-5.774,2.389-8.452,3.943c-3.362,1.952-6.583,4.172-9.727,6.466c-3.093,2.258-5.802,4.957-7.574,8.423
	c-0.548,1.073-1.188,2.278-1.183,3.421c0.017,3.966-1.076,7.981,0.349,11.898c0.345,0.946,0.158,1.754-0.206,2.677
	c-1.35,3.418-2.582,6.883-3.946,10.57c-0.416-0.273-1.2-0.565-1.656-1.125c-2.149-2.636-3.491-5.598-3.718-9.077
	c-0.288-4.413-0.846-8.798-0.474-13.245c0.406-4.849,1.549-9.528,3.008-14.133c0.915-2.89,1.746-5.891,3.224-8.497
	c1.745-3.077,3.965-5.939,6.302-8.613c4.161-4.761,8.477-9.398,12.92-13.896c1.438-1.456,3.492-2.295,5.239-3.453
	c0.58-0.385,1.015-1.045,1.631-1.309c3.276-1.4,6.567-2.772,9.898-4.034c1.776-0.673,3.642-1.109,5.473-1.634
	c0.282-0.081,0.593-0.063,0.89-0.091C487.293,90.05,487.327,90.147,487.36,90.245z"/>
<path fill-rule="evenodd" clip-rule="evenodd" fill="#FFFFFF" stroke="#000000" stroke-miterlimit="10" d="M444.367,180.745
	c-4.272,0.671-5.723,3.567-6.087,7.394c-0.263,2.75,0.585,5.054,2.624,6.985c-0.215-0.825-0.389-1.664-0.652-2.473
	c-0.845-2.606-0.819-5.211,0.116-7.764c0.503-1.375,1.377-2.503,3.044-2.585c0.943-0.047,1.438,0.401,1.971,1.245
	c1.41,2.231,0.324,4.679,0.874,6.958c0.313,1.299,0.368,2.695,0.887,3.897c0.343,0.796,1.325,1.305,1.975,1.987
	c0.32,0.335,0.749,0.765,0.76,1.163c0.075,2.752,0.042,5.507,0.069,8.261c0.014,1.487-0.358,1.96-1.816,1.871
	c-1.719-0.106-3.278-0.637-4.717-1.701c-7.018-5.184-10.075-12.422-10.729-20.818c-0.29-3.714,0.464-7.372,1.922-10.826
	c1.192-2.827,4.569-4.962,7.239-4.602c1.742,0.235,3.106,1.327,3.494,2.928c0.508,2.097,0.513,4.316,0.719,6.485
	c0.012,0.13-0.107,0.273-0.261,0.637c-1.537-2.246-3.211-4.227-6.017-4.004c-1.202,0.096-2.497,0.751-3.479,1.505
	c-1.867,1.435-2.42,5.148-1.097,7.32c0.128-0.93,0.179-1.62,0.326-2.288c0.215-0.981,0.372-2.004,0.779-2.908
	c1.11-2.46,3.065-3.049,5.375-1.645C442.81,178.453,443.904,179.236,444.367,180.745z"/>
<path fill-rule="evenodd" clip-rule="evenodd" fill="#FFFFFF" stroke="#000000" stroke-miterlimit="10" d="M453.938,152.778
	c0,2.367-0.116,4.308,0.027,6.23c0.218,2.941,0.597,5.871,0.941,8.801c0.17,1.442,0.336,2.892,0.64,4.309
	c0.821,3.843,1.724,7.669,2.574,11.505c0.335,1.514,0.203,2.921-1.167,3.937c-0.676,0.501-1.269,0.699-2.198,0.238
	c-2.607-1.294-2.647-1.214-3.971-2.898c-0.428,0.851-0.354,1.701,0.267,2.5c0.22,0.285,0.551,0.484,0.775,0.766
	c0.527,0.663,1.894,0.556,1.773,1.761c-0.176,1.758-0.081,3.65-1.439,5.029c-0.378,0.382-1.233,0.642-1.724,0.49
	c-0.922-0.286-1.999-0.616-2.228-1.829c-0.591-3.137-0.925-6.243-0.706-9.495c0.256-3.808-0.234-7.665-0.416-11.5
	c-0.013-0.274-0.08-0.598-0.241-0.804c-1.625-2.062-1.066-4.362-0.25-6.362c1.568-3.848,3.491-7.556,5.369-11.27
	C452.241,153.637,453.075,153.371,453.938,152.778z"/>
<path fill-rule="evenodd" clip-rule="evenodd" fill="#FFFFFF" stroke="#000000" stroke-miterlimit="10" d="M561.14,179.108
	c-0.099-1.042-0.144-2.093-0.309-3.124c-0.216-1.351-0.763-2.492-2.275-2.837c-1.253-0.285-2.888,0.369-3.698,1.604
	c-0.586,0.892-1.052,1.863-1.734,3.094c-0.137-0.83-0.293-1.363-0.301-1.897c-0.026-1.907-0.029-3.816,0.027-5.723
	c0.01-0.305,0.303-0.736,0.581-0.879c3.037-1.548,6.155-0.352,7.784,2.629c2.896,5.302,2.94,10.909,2.274,16.676
	c-0.395,3.417-1.411,6.604-3.306,9.439c-1.91,2.854-3.84,5.744-6.682,7.805c-0.676,0.49-1.532,0.731-2.552,1.199
	c0-2.219,0.019-4.069-0.007-5.919c-0.013-0.923-0.18-1.847-0.133-2.763c0.025-0.475,0.312-0.968,0.58-1.389
	c0.569-0.895,1.463-1.668,1.764-2.635c0.777-2.499,0.785-5.108,0.523-7.708c-0.117-1.17-0.309-2.34-0.309-3.51
	c-0.001-0.474,0.418-0.947,0.646-1.421c0.348,0.285,0.857,0.501,1.016,0.869c0.627,1.446,1.131,2.947,1.711,4.415
	c0.217,0.547,0.521,1.06,0.787,1.588c0.129-0.018,0.256-0.037,0.385-0.055c0-0.56,0.115-1.149-0.021-1.674
	c-0.474-1.822-1.002-3.632-1.594-5.419c-0.121-0.364-0.56-0.751-0.936-0.879c-1-0.34-1.16-1.083-0.793-1.823
	c0.655-1.317,1.332-2.69,2.305-3.764c0.932-1.028,1.59-0.778,2.215,0.508c0.497,1.021,0.904,2.085,1.363,3.124
	c0.09,0.204,0.237,0.383,0.357,0.573C560.92,179.178,561.029,179.144,561.14,179.108z"/>
<path fill-rule="evenodd" clip-rule="evenodd" fill="#FFFFFF" d="M544.469,154.068c0.568,0.921,0.983,1.536,1.34,2.183
	c0.959,1.739,1.907,3.482,2.82,5.245c0.197,0.382,0.23,0.851,0.338,1.279c0.227,0.902,0.031,1.954,1.096,2.545
	c0.285,0.159,0.443,0.69,0.51,1.077c0.313,1.791,0.924,3.619,0.783,5.382c-0.402,5.027,0.4,9.96,0.762,14.927
	c0.182,2.51,0.492,5.006-0.307,7.473c-0.486,1.496-1.188,2.213-2.361,1.866c-0.764-0.226-1.473-0.92-1.998-1.574
	c-0.406-0.505-0.496-1.269-0.715-1.922c-0.255-0.768-0.338-1.422,0.512-1.997c0.455-0.308,0.65-1,0.963-1.518
	c-0.115-0.084-0.232-0.169-0.348-0.254c-0.26,0.255-0.514,0.517-0.781,0.765c-0.805,0.749-1.741,0.674-2.18-0.331
	c-0.596-1.363-1.206-2.774-1.448-4.225c-0.542-3.255-0.47-6.518,0.198-9.79c0.845-4.134,1.427-8.294,0.936-12.561
	c-0.291-2.53-0.21-5.104-0.287-7.659C544.295,154.802,544.364,154.621,544.469,154.068z"/>
<path fill-rule="evenodd" clip-rule="evenodd" d="M537.771,186.825c2.066,0.934,2.824,2.967,2.933,5.01
	c0.147,2.771,0.076,5.632-0.472,8.339c-0.67,3.324-2.143,6.472-5.203,8.325c-1.318,0.797-2.129,1.555-2.686,3.064
	c-0.639,1.73-1.972,3.208-3.033,4.776c-0.775,1.144-1.625,2.173-2.992,2.735c-3.227,1.323-6.439,1.494-9.73,0.104
	c-1.788,2.927-4.668,3.234-7.645,3.253c-2.545,0.015-5.096,0.058-7.632-0.1c-0.956-0.061-1.94-0.542-2.796-1.034
	c-0.643-0.368-1.036-0.415-1.593,0.08c-1.594,1.418-3.315,2.807-5.561,2.637c-1.74-0.132-3.611-0.433-5.125-1.228
	c-2.632-1.381-5.223-2.996-6.288-6.113c-0.11-0.321-0.76-0.605-1.184-0.645c-1.808-0.164-3.661-0.044-5.431-0.379
	c-2.211-0.419-3.801-1.965-4.491-4.036c-0.618-1.854-1.223-3.109-3.506-3.249c-2.032-0.124-3.282-1.787-3.922-3.602
	c-0.641-1.818-1.084-3.734-1.356-5.644c-0.438-3.074-0.414-6.157,0.828-9.097c0.343-0.811,0.752-1.594,1.171-2.475
	c0.759,1.232,1.496,2.462,2.266,3.673c2.749,4.326,6.942,5.86,11.81,6.027c0.328,0.011,0.902-0.321,0.947-0.567
	c0.055-0.307-0.27-0.951-0.522-1.002c-3.427-0.695-4.864-3.325-5.654-6.226c-0.976-3.587-1.595-7.279-2.217-10.952
	c-0.556-3.282-0.002-6.537,0.714-9.745c1.128-5.053,4.608-7.985,9.188-9.748c2.06-0.792,5.85-0.456,7.807,1.952
	c1.618,1.991,2.754,4.2,3.157,6.618c0.671,4.028,0.978,8.12,1.365,12.19c0.126,1.325,0.071,1.242,1.408,0.977
	c2.18-0.433,4.398-0.68,6.606-0.956c2.976-0.372,5.919-0.196,8.786,0.739c1.053,0.343,1.26-0.063,1.211-1.045
	c-0.248-4.879,0.188-9.688,2.315-14.148c2.282-4.782,7.896-6.909,12.341-3.969c1.801,1.191,2.571,3.1,3.292,4.991
	c1.821,4.772,2.776,9.753,3.057,14.831c0.192,3.5-0.087,7.001-2.097,10.081c-1.125,1.725-2.567,3.101-4.459,4
	c-0.314,0.149-0.43,0.718-0.636,1.092c0.349,0.167,0.718,0.512,1.043,0.475c3.228-0.364,5.963-1.815,8.255-4.06
	C533.971,190.885,535.795,188.887,537.771,186.825z M501.436,180.604c-2.445,0.155-4.476,0.051-6.402,0.453
	c-4.015,0.836-7.954,1.977-11.035,4.961c-0.347,0.336-0.737,0.748-1.172,0.853c-2.431,0.589-2.966,2.676-3.639,4.59
	c-0.41,1.169-0.559,2.435-0.777,3.666c-0.695,3.917-0.473,7.481,2.509,10.698c2.294,2.474,4.065,5.394,6.678,7.667
	c2.463,2.145,5.024,3.661,8.348,3.648c0.446-0.002,0.895,0.01,1.338,0.056c4.203,0.437,8.21-0.513,11.943-2.234
	c2.351-1.086,4.53-2.718,6.475-4.454c1.781-1.591,3.371-3.509,4.643-5.535c2.25-3.583,1.503-7.512,0.607-11.339
	c-0.205-0.879-0.806-1.676-1.275-2.481c-2.621-4.494-6.076-7.99-11.312-9.298C505.936,181.248,503.566,180.263,501.436,180.604z
	 M538.047,188.697c-1.182,1.259-2.129,2.352-3.162,3.354c-3.012,2.918-6.266,5.454-10.65,5.838
	c-1.221,0.107-1.345,0.718-1.426,1.748c-0.117,1.475-0.369,2.968-0.803,4.381c-0.728,2.381-2.412,4.157-4.006,6.02
	c-3.096,3.617-7.036,5.82-11.461,7.23c-4.125,1.315-8.364,1.435-12.648,0.873c-1.91-0.251-3.575-0.883-5.085-2.101
	c-2.788-2.25-5.34-4.73-7.443-7.619c-1.952-2.681-4.005-5.361-4.179-8.896c-0.042-0.867-0.627-0.862-1.278-0.888
	c-5.145-0.202-9.494-1.939-12.387-6.469c-0.392-0.613-0.852-1.182-1.392-1.924c-0.212,0.548-0.36,0.835-0.437,1.14
	c-0.843,3.367-0.88,6.795-0.126,10.132c0.378,1.672,1.324,3.349,2.431,4.675c0.664,0.794,2.11,1.048,3.256,1.252
	c0.314,0.057,0.815-0.944,1.234-1.457c0.021-0.025,0.074-0.026,0.221-0.073c0.121,0.714,0.263,1.415,0.356,2.123
	c0.744,5.598,6.304,8.618,11.454,6.235c0.244-0.113,0.615-0.043,0.888,0.052c0.089,0.031,0.056,0.414,0.079,0.636
	c0.077,0.755-0.095,1.671,0.272,2.239c1.688,2.608,4.18,4.294,7.08,5.261c2.07,0.69,4.128,0.645,5.913-1.021
	c0.953-0.89,2.106-1.565,3.176-2.342c1.192,1.52,2.524,2.262,4.223,2.234c2.672-0.043,5.36,0.045,8.011-0.225
	c1.479-0.15,2.927-0.842,4.322-1.444c0.384-0.167,0.568-0.872,0.771-1.359c0.145-0.349,0.164-0.749,0.24-1.126
	c0.446,0.091,1.012,0.04,1.319,0.297c2.187,1.827,6.739,2.016,9.126,0.296c2.701-1.948,4.423-4.613,5.344-7.76
	c0.313-1.068,0.874-1.597,1.859-1.751c1.553-0.243,2.52-1.275,3.318-2.462c2.65-3.941,3.181-8.37,2.698-12.955
	C539.012,191.475,538.449,190.152,538.047,188.697z M522.883,194.625c1.361-1.217,2.729-2.186,3.769-3.427
	c1.743-2.079,2.103-4.705,2.238-7.313c0.236-4.548-0.716-8.956-1.849-13.315c-0.653-2.514-1.508-4.982-3.208-7.033
	c-1.46-1.761-3.364-2.509-5.619-2.206c-2.417,0.324-3.983,1.866-5.233,3.828c0.305-0.004,0.543-0.121,0.784-0.229
	c2.835-1.258,6.994-0.181,8.06,2.83c0.566,1.596,1.239,3.224,1.395,4.882c0.275,2.934,0.354,5.909,0.215,8.853
	c-0.131,2.778-0.371,5.623-2.572,7.779c-0.203,0.198-0.314,0.725-0.199,0.974C521.289,191.595,521.998,192.905,522.883,194.625z
	 M477.135,194.308c0.38-1.184,0.76-2.248,1.047-3.336c0.078-0.294-0.038-0.721-0.215-0.986c-1.004-1.503-2.278-2.871-3.033-4.485
	c-1.015-2.171-2.171-4.384-1.792-6.964c0.074-0.502-0.136-1.04-0.155-1.563c-0.035-0.92-0.162-1.868,0-2.759
	c0.26-1.434,0.647-2.856,1.117-4.237c1.044-3.07,3.204-5.001,6.418-5.41c2.702-0.343,5.307,0.098,7.372,2.305
	c-0.321-1.206-0.716-2.336-1.219-3.417c-1.357-2.919-4.815-4.744-7.529-3.723c-3.939,1.482-6.99,4.044-8.031,8.321
	c-1.083,4.448-1.284,8.981-0.627,13.524c0.513,3.547,1.261,7.045,3.082,10.186C474.323,193.065,475.322,194.211,477.135,194.308z
	 M488.693,178.454c0.056-0.338,0.102-0.488,0.103-0.638c0.016-3.302-0.819-6.425-2.082-9.437c-0.612-1.459-1.719-2.397-3.329-2.75
	c-3.099-0.679-5.585,0.354-7.013,3.192c-1.292,2.568-1.747,5.249-1.543,8.217c0.16,2.333,0.292,4.591,1.201,6.738
	c0.749,1.77,1.625,3.485,2.482,5.303c1.08-0.754,1.374-1.317,0.51-2.188c-0.432-0.437-0.706-1.086-0.904-1.688
	c-0.61-1.848-0.92-3.688-0.604-5.701c0.334-2.129,0.738-4.199,2.196-5.792c2.173-2.374,4.62-2.727,6.427,0.026
	C487.076,175.169,487.782,176.753,488.693,178.454z M518.1,186.834c0.199-0.173,0.321-0.232,0.367-0.328
	c1.861-3.8,2.15-7.713,0.5-11.621c-1.284-3.043-4.041-3.484-6.314-1.187c-1.733,1.75-1.971,4.009-2.137,6.284
	c-0.066,0.915,0.345,1.457,1.275,1.772c2.213,0.75,3.901,2.249,5.348,4.045C517.43,186.161,517.769,186.48,518.1,186.834z
	 M487.998,180.669c-0.323-2.406-1.219-4.594-2.779-6.475c-1.614-1.947-3.564-1.87-5.016,0.235c-1.592,2.309-1.819,5.014-1.727,7.685
	c0.042,1.244,0.654,2.493,1.132,3.69c0.353,0.885,0.888,1.178,1.85,0.435c1.78-1.375,3.654-2.639,5.566-3.826
	C487.754,181.962,488.135,181.527,487.998,180.669z M510.152,174.754c0.13,0.064,0.262,0.129,0.392,0.194
	c0.262-0.39,0.498-0.799,0.789-1.166c2.565-3.233,6.536-3.821,8.674,0.531c2.078,4.231,1.763,8.669-0.593,12.818
	c-0.465,0.819-0.246,1.143,0.414,1.576c0.166-0.211,0.342-0.381,0.449-0.586c0.207-0.394,0.396-0.799,0.556-1.213
	c1.489-3.844,1.481-7.876,1.255-11.878c-0.121-2.113-0.648-4.242-1.271-6.279c-1.171-3.833-5.068-4.032-6.975-2.497
	C511.105,168.457,510.739,171.657,510.152,174.754z"/>
<path fill-rule="evenodd" clip-rule="evenodd" d="M532.148,157.091c-0.152,0.669-0.238,1.363-0.473,2.002
	c-0.365,0.998-0.775,0.996-1.561,0.28c-1.521-1.385-3.009-2.848-4.707-3.983c-0.934-0.624-2.268-0.879-3.426-0.894
	c-3.911-0.051-6.894,1.857-9.195,4.887c-0.85,1.118-1.51,2.379-2.302,3.544c-0.163,0.241-0.53,0.344-0.802,0.51
	c-0.17-0.288-0.5-0.591-0.477-0.862c0.078-0.883,0.223-1.772,0.453-2.629c1.363-5.048,3.115-9.916,6.707-13.889
	c2.918-3.227,6.25-3.426,9.684-0.781C529.953,148.28,531.887,152.214,532.148,157.091z M530.453,157.555
	c0.125-0.174,0.191-0.229,0.206-0.296c0.023-0.117,0.036-0.245,0.017-0.362c-0.691-4.537-2.098-8.637-6.224-11.339
	c-2.304-1.509-4.151-1.417-6.231,0.433c-4.096,3.641-5.629,8.59-7.162,13.558c-0.025,0.082,0.08,0.205,0.188,0.451
	C516.828,152.429,523.176,150.884,530.453,157.555z"/>
<path fill-rule="evenodd" clip-rule="evenodd" d="M489.838,162.178c-0.78-1.174-1.323-2.097-1.966-2.944
	c-3.464-4.564-7.421-5.31-12.494-3.732c-3.726,1.158-6.911,3.269-9.837,6.23c-0.094-0.687-0.266-1.255-0.234-1.813
	c0.264-4.541,1.439-8.782,4.202-12.489c0.459-0.616,0.817-1.311,1.304-1.902c2.313-2.804,6.875-3.233,10.282-0.077
	c1.898,1.758,3.172,3.873,4.431,6.041c1.241,2.137,2.495,4.271,3.617,6.469c0.483,0.946,0.676,2.047,0.942,3.092
	C490.147,161.296,489.975,161.598,489.838,162.178z M485.743,155.323c0.081-0.092,0.161-0.185,0.241-0.277
	c-0.391-0.743-0.788-1.482-1.171-2.229c-1.473-2.869-3.171-5.535-5.897-7.433c-2.505-1.745-6.177-1.179-7.897,1.233
	c-1.899,2.664-3.368,5.521-4.148,8.7c-0.313,1.275-0.451,2.593-0.668,3.891c0.628-0.041,0.867-0.177,1.098-0.323
	c1.945-1.231,3.792-2.667,5.855-3.65c3.288-1.568,6.793-2.144,10.384-0.995C484.31,154.487,485.01,154.956,485.743,155.323z"/>
<path fill-rule="evenodd" clip-rule="evenodd" d="M514.592,114.62c-1.441-2.417-2.722-4.765-4.205-6.978
	c-1.098-1.641-2.461-3.105-3.705-4.649c-0.577-0.718-1.078-0.523-1.557,0.117c-2.039,2.727-4.104,5.436-6.114,8.184
	c-0.787,1.075-1.417,1.303-2.351,0.317c-1.974-2.083-3.825-4.283-5.712-6.448c-0.443-0.508-0.825-1.07-1.442-1.878
	c-0.486,1.227-0.896,2.164-1.231,3.126c-0.799,2.298-1.572,4.605-2.332,6.917c-0.15,0.457-0.215,0.944-0.287,1.423
	c-0.139,0.921-0.997,1.594-1.806,1.208c-1.296-0.62-2.544-1.364-3.729-2.176c-0.289-0.198-0.479-0.965-0.333-1.306
	c1.865-4.319,3.8-8.609,5.717-12.906c0.166-0.37,0.361-0.728,0.502-1.106c0.771-2.07,2.546-2.422,4.173-0.955
	c2.255,2.034,4.616,3.952,6.923,5.928c0.767,0.656,1.364,0.622,2.024-0.219c1.628-2.073,3.266-4.146,5.028-6.104
	c0.766-0.852,1.772-1.559,2.797-2.085c1.17-0.6,1.865,0.384,2.458,1.197c2.292,3.142,4.535,6.321,6.832,9.46
	c0.835,1.143,1.786,2.201,2.655,3.321c0.491,0.632,0.465,1.205-0.182,1.806c-1.24,1.152-2.403,2.384-3.613,3.57
	C514.97,114.512,514.748,114.55,514.592,114.62z M515.202,113.308c0.792-0.827,1.466-1.627,2.241-2.313
	c0.694-0.615,0.564-1.111,0.072-1.755c-3.051-4.001-6.087-8.013-9.111-12.035c-0.896-1.191-1.277-1.306-2.384-0.302
	c-0.956,0.869-1.837,1.83-2.69,2.804c-1.336,1.525-2.588,3.125-3.936,4.64c-1.044,1.173-1.578,1.201-2.766,0.239
	c-2.175-1.762-4.27-3.628-6.5-5.315c-2.355-1.781-2.337-2.26-3.932,0.993c-1.839,3.749-3.438,7.614-5.194,11.404
	c-0.408,0.882-0.527,1.387,0.662,1.605c0.459,0.084,0.848,0.591,1.25,0.928c0.443,0.371,0.863,0.768,1.356,1.21
	c0.162-0.309,0.254-0.44,0.303-0.585c1.411-4.234,2.81-8.472,4.24-12.699c0.117-0.346,0.445-0.621,0.676-0.929
	c0.267,0.265,0.564,0.507,0.795,0.8c2.279,2.894,4.547,5.796,6.82,8.694c0.398,0.509,0.801,0.476,1.199-0.008
	c0.591-0.721,1.209-1.42,1.772-2.163c1.663-2.192,3.231-4.46,4.981-6.578c0.912-1.104,1.434-1.063,2.363,0.057
	c1.65,1.99,3.242,4.04,4.723,6.16C513.227,109.712,514.092,111.419,515.202,113.308z"/>
<path fill-rule="evenodd" clip-rule="evenodd" fill="#FFFFFF" stroke="#000000" stroke-miterlimit="10" d="M501.436,180.604
	c2.131-0.342,4.5,0.644,6.929,1.25c5.235,1.309,8.69,4.804,11.312,9.298c0.47,0.805,1.07,1.602,1.275,2.481
	c0.896,3.828,1.643,7.756-0.607,11.339c-1.271,2.026-2.861,3.944-4.643,5.535c-1.944,1.736-4.124,3.368-6.475,4.454
	c-3.732,1.722-7.74,2.671-11.943,2.234c-0.443-0.046-0.892-0.058-1.338-0.056c-3.324,0.013-5.885-1.504-8.348-3.648
	c-2.612-2.273-4.384-5.193-6.678-7.667c-2.982-3.217-3.205-6.781-2.509-10.698c0.218-1.231,0.367-2.497,0.777-3.666
	c0.672-1.915,1.208-4.001,3.639-4.59c0.436-0.105,0.825-0.517,1.172-0.853c3.081-2.985,7.021-4.125,11.035-4.961
	C496.959,180.656,498.991,180.759,501.436,180.604z"/>
<path fill-rule="evenodd" clip-rule="evenodd" fill="#FFFFFF" d="M538.047,188.697c0.402,1.455,0.965,2.778,1.108,4.146
	c0.482,4.584-0.048,9.013-2.698,12.955c-0.799,1.188-1.766,2.219-3.318,2.462c-0.985,0.154-1.547,0.683-1.859,1.751
	c-0.921,3.147-2.643,5.812-5.344,7.76c-2.387,1.72-6.939,1.531-9.126-0.296c-0.308-0.258-0.873-0.206-1.319-0.297
	c-0.076,0.377-0.096,0.777-0.24,1.126c-0.202,0.488-0.387,1.193-0.771,1.359c-1.396,0.602-2.843,1.294-4.322,1.444
	c-2.65,0.27-5.339,0.181-8.011,0.225c-1.698,0.028-3.031-0.715-4.223-2.234c-1.069,0.777-2.223,1.452-3.176,2.342
	c-1.785,1.666-3.843,1.711-5.913,1.021c-2.9-0.967-5.392-2.653-7.08-5.261c-0.367-0.568-0.196-1.484-0.272-2.239
	c-0.022-0.222,0.011-0.605-0.079-0.636c-0.273-0.096-0.644-0.166-0.888-0.052c-5.15,2.383-10.71-0.637-11.454-6.235
	c-0.094-0.708-0.235-1.408-0.356-2.123c-0.147,0.047-0.2,0.048-0.221,0.073c-0.418,0.513-0.92,1.514-1.234,1.457
	c-1.146-0.204-2.592-0.458-3.256-1.252c-1.107-1.326-2.052-3.002-2.431-4.675c-0.754-3.337-0.717-6.765,0.126-10.132
	c0.076-0.305,0.224-0.592,0.437-1.14c0.54,0.742,1,1.311,1.392,1.924c2.893,4.53,7.242,6.268,12.387,6.469
	c0.651,0.026,1.236,0.021,1.278,0.888c0.173,3.534,2.227,6.214,4.179,8.896c2.104,2.888,4.656,5.369,7.443,7.619
	c1.51,1.218,3.175,1.85,5.085,2.101c4.285,0.562,8.523,0.442,12.648-0.873c4.425-1.411,8.365-3.613,11.461-7.23
	c1.594-1.863,3.278-3.639,4.006-6.02c0.434-1.413,0.686-2.906,0.803-4.381c0.081-1.029,0.205-1.641,1.426-1.748
	c4.385-0.385,7.639-2.92,10.65-5.838C535.918,191.048,536.865,189.956,538.047,188.697z"/>
<path fill-rule="evenodd" clip-rule="evenodd" fill="#FFFFFF" stroke="#000000" stroke-miterlimit="10" d="M522.883,194.625
	c-0.885-1.72-1.594-3.029-2.221-4.378c-0.115-0.25-0.004-0.776,0.199-0.974c2.201-2.156,2.441-5.001,2.572-7.779
	c0.139-2.944,0.061-5.919-0.215-8.853c-0.155-1.658-0.828-3.286-1.395-4.882c-1.065-3.01-5.225-4.088-8.06-2.83
	c-0.241,0.107-0.479,0.224-0.784,0.229c1.25-1.962,2.816-3.504,5.233-3.828c2.255-0.303,4.159,0.445,5.619,2.206
	c1.7,2.051,2.555,4.519,3.208,7.033c1.133,4.36,2.085,8.768,1.849,13.315c-0.136,2.608-0.495,5.235-2.238,7.313
	C525.611,192.439,524.244,193.408,522.883,194.625z"/>
<path fill-rule="evenodd" clip-rule="evenodd" fill="#FFFFFF" stroke="#000000" stroke-miterlimit="10" d="M477.135,194.308
	c-1.813-0.097-2.812-1.243-3.566-2.545c-1.821-3.141-2.569-6.639-3.082-10.186c-0.657-4.543-0.456-9.077,0.627-13.524
	c1.042-4.276,4.092-6.838,8.031-8.321c2.714-1.021,6.172,0.804,7.529,3.723c0.502,1.081,0.898,2.211,1.219,3.417
	c-2.065-2.207-4.67-2.648-7.372-2.305c-3.214,0.408-5.374,2.34-6.418,5.41c-0.47,1.381-0.857,2.804-1.117,4.237
	c-0.162,0.891-0.035,1.839,0,2.759c0.02,0.523,0.229,1.061,0.155,1.563c-0.379,2.58,0.778,4.793,1.792,6.964
	c0.755,1.614,2.029,2.981,3.033,4.485c0.177,0.265,0.292,0.692,0.215,0.986C477.895,192.06,477.515,193.124,477.135,194.308z"/>
<path fill-rule="evenodd" clip-rule="evenodd" fill="#FFFFFF" stroke="#000000" stroke-miterlimit="10" d="M488.693,178.454
	c-0.912-1.7-1.618-3.284-2.558-4.716c-1.807-2.753-4.253-2.4-6.427-0.026c-1.458,1.593-1.862,3.662-2.196,5.792
	c-0.316,2.013-0.006,3.853,0.604,5.701c0.199,0.602,0.472,1.251,0.904,1.688c0.864,0.871,0.57,1.434-0.51,2.188
	c-0.856-1.817-1.733-3.533-2.482-5.303c-0.909-2.147-1.041-4.405-1.201-6.738c-0.204-2.968,0.252-5.649,1.543-8.217
	c1.428-2.838,3.915-3.872,7.013-3.192c1.609,0.353,2.716,1.291,3.329,2.75c1.263,3.012,2.098,6.135,2.082,9.437
	C488.795,177.966,488.75,178.116,488.693,178.454z"/>
<path fill-rule="evenodd" clip-rule="evenodd" fill="#FFFFFF" stroke="#000000" stroke-miterlimit="10" d="M518.1,186.834
	c-0.331-0.354-0.67-0.673-0.961-1.034c-1.446-1.796-3.135-3.295-5.348-4.045c-0.931-0.315-1.342-0.857-1.275-1.772
	c0.166-2.275,0.403-4.534,2.137-6.284c2.273-2.297,5.03-1.856,6.314,1.187c1.65,3.907,1.361,7.821-0.5,11.621
	C518.421,186.602,518.299,186.661,518.1,186.834z"/>
<path fill-rule="evenodd" clip-rule="evenodd" fill="#FFFFFF" d="M487.998,180.669c0.137,0.858-0.244,1.292-0.973,1.745
	c-1.912,1.187-3.786,2.451-5.566,3.826c-0.962,0.743-1.497,0.45-1.85-0.435c-0.478-1.197-1.09-2.446-1.132-3.69
	c-0.092-2.671,0.135-5.376,1.727-7.685c1.452-2.105,3.401-2.182,5.016-0.235C486.779,176.075,487.675,178.263,487.998,180.669z"/>
<path fill-rule="evenodd" clip-rule="evenodd" fill="#FFFFFF" d="M510.152,174.754c0.587-3.098,0.953-6.298,3.689-8.5
	c1.906-1.535,5.804-1.336,6.975,2.497c0.623,2.037,1.15,4.166,1.271,6.279c0.227,4.002,0.234,8.034-1.255,11.878
	c-0.16,0.414-0.349,0.82-0.556,1.213c-0.107,0.205-0.283,0.375-0.449,0.586c-0.66-0.433-0.879-0.757-0.414-1.576
	c2.355-4.149,2.671-8.586,0.593-12.818c-2.138-4.353-6.108-3.765-8.674-0.531c-0.291,0.367-0.527,0.776-0.789,1.166
	C510.414,174.884,510.282,174.819,510.152,174.754z"/>
<path fill-rule="evenodd" clip-rule="evenodd" fill="#FFFFFF" stroke="#000000" stroke-miterlimit="10" d="M530.453,157.555
	c-7.277-6.671-13.625-5.126-19.207,2.444c-0.107-0.246-0.213-0.369-0.188-0.451c1.533-4.968,3.066-9.917,7.162-13.558
	c2.08-1.85,3.928-1.942,6.231-0.433c4.126,2.703,5.532,6.803,6.224,11.339c0.02,0.118,0.007,0.245-0.017,0.362
	C530.645,157.326,530.578,157.381,530.453,157.555z"/>
<path fill-rule="evenodd" clip-rule="evenodd" fill="#FFFFFF" stroke="#000000" stroke-miterlimit="10" d="M485.743,155.323
	c-0.733-0.367-1.433-0.836-2.204-1.083c-3.591-1.149-7.096-0.573-10.384,0.995c-2.063,0.983-3.91,2.419-5.855,3.65
	c-0.231,0.146-0.47,0.283-1.098,0.323c0.218-1.298,0.355-2.616,0.668-3.891c0.78-3.179,2.249-6.036,4.148-8.7
	c1.72-2.412,5.392-2.978,7.897-1.233c2.726,1.898,4.424,4.564,5.897,7.433c0.383,0.747,0.781,1.485,1.171,2.229
	C485.903,155.138,485.823,155.23,485.743,155.323z"/>
<path fill-rule="evenodd" clip-rule="evenodd" stroke="#000000" stroke-miterlimit="10" d="M515.202,113.308
	c-1.11-1.889-1.976-3.595-3.06-5.148c-1.48-2.121-3.072-4.17-4.723-6.16c-0.93-1.12-1.451-1.161-2.363-0.057
	c-1.75,2.118-3.318,4.386-4.981,6.578c-0.563,0.743-1.182,1.442-1.772,2.163c-0.398,0.484-0.801,0.517-1.199,0.008
	c-2.273-2.898-4.541-5.8-6.82-8.694c-0.231-0.293-0.528-0.535-0.795-0.8c-0.23,0.308-0.559,0.583-0.676,0.929
	c-1.43,4.227-2.829,8.465-4.24,12.699c-0.049,0.146-0.142,0.277-0.303,0.585c-0.493-0.442-0.914-0.839-1.356-1.21
	c-0.402-0.337-0.791-0.844-1.25-0.928c-1.189-0.219-1.07-0.724-0.662-1.605c1.756-3.79,3.355-7.655,5.194-11.404
	c1.595-3.252,1.577-2.773,3.932-0.993c2.231,1.687,4.326,3.553,6.5,5.315c1.188,0.962,1.721,0.934,2.766-0.239
	c1.348-1.515,2.6-3.114,3.936-4.64c0.854-0.974,1.734-1.935,2.69-2.804c1.106-1.003,1.488-0.889,2.384,0.302
	c3.024,4.021,6.061,8.034,9.111,12.035c0.492,0.645,0.622,1.14-0.072,1.755C516.668,111.681,515.994,112.481,515.202,113.308z"/>
<g id="skeleton_1_" display="none">
	<circle id="rightShoulder" display="inline" cx="392.8" cy="294.3" r="8.2"/>
	<circle id="rightElbow" display="inline" cx="289.3" cy="294.4" r="8.2"/>
	<ellipse id="rightWrist" display="inline" cx="125.896" cy="300.79" rx="8.2" ry="8.2"/>
	<circle id="rightHip" display="inline" cx="443.1" cy="510.1" r="8.2"/>
	<circle id="rightKnee" display="inline" cx="449.5" cy="670.3" r="8.2"/>
	<circle id="rightAnkle" display="inline" cx="449.5" cy="878.3" r="8.2"/>
	<circle id="leftShoulder" display="inline" cx="605.7" cy="294.3" r="8.2"/>
	<circle id="leftElbow" display="inline" cx="710.1" cy="294" r="8.2"/>
	<circle id="leftWrist" display="inline" cx="873.5" cy="300.3" r="8.2"/>
	<circle id="leftHip" display="inline" cx="559.5" cy="509.3" r="8.2"/>
	<circle id="leftKnee" display="inline" cx="559.5" cy="670.3" r="8.2"/>
	<circle id="leftAnkle" display="inline" cx="559.5" cy="878.3" r="8.2"/>
	<polygon display="inline" fill="none" stroke="#000000" stroke-miterlimit="10" points="392.7,294.6 443,510.4 559.4,509.6 
		605.6,294.6 	"/>
	<polyline display="inline" fill="none" stroke="#000000" stroke-miterlimit="10" points="391.7,294.6 289,294.6 125.7,300.9 	"/>
	<polyline display="inline" fill="none" stroke="#000000" stroke-miterlimit="10" points="607.1,294.2 710.3,294.2 873.6,300.6 	"/>
	<polyline display="inline" fill="none" stroke="#000000" stroke-miterlimit="10" points="443,510.4 449.4,670.6 449.4,878.6 	"/>
	<polyline display="inline" fill="none" stroke="#000000" stroke-miterlimit="10" points="559.4,509.6 559.4,670.6 559.4,878.6 	"/>
	<circle id="rightEye0" display="inline" cx="468.6" cy="160.2" r="0.8"/>
	<circle id="rightBrow1" display="inline" cx="466.4" cy="148.3" r="0.8"/>
	<circle id="rightBrow4" display="inline" cx="489.7" cy="151.3" r="0.8"/>
	<circle id="nose1" display="inline" cx="497.6" cy="161.2" r="0.8"/>
	<circle id="rightBrow3" display="inline" cx="479.9" cy="147.3" r="0.8"/>
	<circle id="rightEye1" display="inline" cx="473.8" cy="156.5" r="0.8"/>
	<circle id="rightBrow0" display="inline" cx="462.4" cy="152" r="0.8"/>
	<circle id="rightBrow2" display="inline" cx="472.6" cy="147.3" r="0.8"/>
	<circle id="rightEye5" display="inline" cx="473.8" cy="162.5" r="0.8"/>
	<circle id="rightEye2" display="inline" cx="480.1" cy="156.5" r="0.8"/>
	<circle id="rightEye3" display="inline" cx="485.3" cy="160.7" r="0.8"/>
	<circle id="nose0" display="inline" cx="497.6" cy="155.4" r="0.8"/>
	<circle id="nose3" display="inline" cx="497.6" cy="173.8" r="0.8"/>
	<circle id="rightNose0" display="inline" cx="486.9" cy="178.3" r="0.8"/>
	<circle id="rightMouthCorner" display="inline" cx="480.9" cy="200.4" r="0.8"/>
	<circle id="rightNose1" display="inline" cx="492.1" cy="178.3" r="0.8"/>
	<circle id="rightUpperLipTop0" display="inline" cx="487.8" cy="197" r="0.8"/>
	<circle id="nose2" display="inline" cx="497.6" cy="166.7" r="0.8"/>
	<circle id="nose4" display="inline" cx="497.6" cy="179.1" r="0.8"/>
	<circle id="upperLipTopMid" display="inline" cx="498.4" cy="196.8" r="0.8"/>
	<circle id="rightUpperLipTop1" display="inline" cx="494.3" cy="195.9" r="0.8"/>
	<path id="rightMiddleLip" display="inline" d="M484.5,199.9c0.4,0,0.8,0.4,0.8,0.8c0,0.4-0.399,0.8-0.8,0.8s-0.8-0.4-0.8-0.8
		C483.7,200.3,484.1,199.9,484.5,199.9z"/>
	<circle id="lowerLipBottomMid" display="inline" cx="498.4" cy="210" r="0.8"/>
	<circle id="upperLipBottomMid" display="inline" cx="498.4" cy="200.4" r="0.8"/>
	<circle id="lowerLipTopMid" display="inline" cx="498.4" cy="203.5" r="0.8"/>
	<circle id="rightUpperLipBottom1" display="inline" cx="494.5" cy="199.9" r="0.8"/>
	<circle id="rightLowerLipTop0" display="inline" cx="494.5" cy="202.8" r="0.8"/>
	<circle id="rightLowerLipBottom1" display="inline" cx="494.3" cy="209.5" r="0.8"/>
	<circle id="rightLowerLipBottom0" display="inline" cx="487.3" cy="206.7" r="0.8"/>
	<circle id="rightEye4" display="inline" cx="480.1" cy="161.7" r="0.8"/>
	<circle id="jawMid" display="inline" cx="498.4" cy="235.8" r="0.8"/>
	<circle id="rightJaw7" display="inline" cx="483.4" cy="232.6" r="0.8"/>
	<circle id="rightJaw6" display="inline" cx="473.4" cy="225.9" r="0.8"/>
	<circle id="rightJaw5" display="inline" cx="461.8" cy="213.4" r="0.8"/>
	<circle id="rightJaw4" display="inline" cx="455" cy="193.4" r="0.8"/>
	<circle id="rightJaw3" display="inline" cx="454.2" cy="171.7" r="0.8"/>
	<circle id="rightJaw2" display="inline" cx="454.2" cy="162.2" r="0.8"/>
	<circle id="rightJaw1" display="inline" cx="455" cy="150.5" r="0.8"/>
	<circle id="rightJaw0" display="inline" cx="457.5" cy="141.2" r="0.8"/>
	<circle id="topMid" display="inline" cx="498.6" cy="115.1" r="0.8"/>
	<circle id="leftTop0" display="inline" cx="518.3" cy="117.6" r="0.8"/>
	<circle id="leftTop1" display="inline" cx="530.9" cy="127.1" r="0.8"/>
	<circle id="leftEye0" display="inline" cx="528.2" cy="160.2" r="0.8"/>
	<circle id="leftBrow1" display="inline" cx="530.1" cy="148.7" r="0.8"/>
	<circle id="leftBrow4" display="inline" cx="506.5" cy="150.8" r="0.8"/>
	<circle id="leftBrow3" display="inline" cx="516.5" cy="147.6" r="0.8"/>
	<circle id="leftEye1" display="inline" cx="523" cy="156.5" r="0.8"/>
	<circle id="leftBrow0" display="inline" cx="534.1" cy="151.6" r="0.8"/>
	<circle id="leftBrow2" display="inline" cx="523.8" cy="147.2" r="0.8"/>
	<circle id="leftEye5" display="inline" cx="523" cy="162.5" r="0.8"/>
	<circle id="leftEye2" display="inline" cx="516.7" cy="156.5" r="0.8"/>
	<circle id="leftEye3" display="inline" cx="511.5" cy="160.7" r="0.8"/>
	<circle id="leftNose0" display="inline" cx="508" cy="178.3" r="0.8"/>
	<circle id="leftMouthCorner" display="inline" cx="515.9" cy="200.4" r="0.8"/>
	<circle id="leftNose1" display="inline" cx="503.2" cy="178.3" r="0.8"/>
	<circle id="leftUpperLipTop0" display="inline" cx="509" cy="197" r="0.8"/>
	<circle id="leftUpperLipTop1" display="inline" cx="502.6" cy="195.9" r="0.8"/>
	<path id="leftMiddleLip" display="inline" d="M512.3,199.9c0.4,0,0.8,0.4,0.8,0.8c0,0.4-0.399,0.8-0.8,0.8
		c-0.399,0-0.8-0.4-0.8-0.8C511.5,200.3,511.9,199.9,512.3,199.9z"/>
	<circle id="leftUpperLipBottom1" display="inline" cx="502.4" cy="199.9" r="0.8"/>
	<circle id="leftLowerLipTop0" display="inline" cx="502.4" cy="202.8" r="0.8"/>
	<circle id="leftLowerLipBottom1" display="inline" cx="502.6" cy="209.5" r="0.8"/>
	<circle id="leftLowerLipBottom0" display="inline" cx="509.5" cy="206.7" r="0.8"/>
	<circle id="leftEye4" display="inline" cx="516.7" cy="161.7" r="0.8"/>
	<circle id="leftJaw7" display="inline" cx="513.2" cy="233" r="0.8"/>
	<circle id="leftJaw6" display="inline" cx="523.2" cy="226.3" r="0.8"/>
	<circle id="leftJaw5" display="inline" cx="534.8" cy="213.7" r="0.8"/>
	<circle id="leftJaw4" display="inline" cx="541.6" cy="193.7" r="0.8"/>
	<circle id="leftJaw3" display="inline" cx="542.4" cy="172.1" r="0.8"/>
	<circle id="leftJaw2" display="inline" cx="542.4" cy="162.5" r="0.8"/>
	<circle id="leftJaw1" display="inline" cx="541.6" cy="150.8" r="0.8"/>
	<circle id="leftJaw0" display="inline" cx="539.1" cy="141.6" r="0.8"/>
	<polyline display="inline" fill="none" stroke="#000000" stroke-miterlimit="10" points="498.4,115.1 478.6,117.6 466.1,127.1 
		457.5,141.2 455,150.5 454.2,162.2 454.2,171.7 455,193.4 461.8,213.4 473.4,225.9 483.4,232.6 498.4,235.8 513.2,233 523.2,226.3 
		534.8,213.7 541.6,193.7 542.4,172.1 542.4,162.5 541.6,150.8 539.1,141.6 530.9,127.1 518.3,117.6 498.4,115.1 	"/>
	<polyline display="inline" fill="none" stroke="#000000" stroke-miterlimit="10" points="462.4,152 466.4,148.3 472.6,147.3 
		479.9,147.3 489.7,151.3 	"/>
	<polygon display="inline" fill="none" stroke="#000000" stroke-miterlimit="10" points="468.6,160.2 473.8,156.5 480.1,156.5 
		485.3,160.7 480.1,161.7 473.8,162.5 	"/>
	<polyline display="inline" fill="none" stroke="#000000" stroke-miterlimit="10" points="486.9,178.3 492.1,178.3 497.6,179.1 
		497.6,173.8 497.6,166.7 497.6,161.2 497.6,155.4 	"/>
	<polyline display="inline" fill="none" stroke="#000000" stroke-miterlimit="10" points="533.9,151.6 529.9,148.7 523.6,147.2 
		516.3,147.6 506.3,150.8 	"/>
	<polygon display="inline" fill="none" stroke="#000000" stroke-miterlimit="10" points="528,160.2 522.7,156.5 516.4,156.5 
		511.3,160.7 516.4,161.7 522.7,162.5 	"/>
	<polyline display="inline" fill="none" stroke="#000000" stroke-miterlimit="10" points="508,178.3 503,178.3 497.6,179.1 	"/>
	<polygon display="inline" fill="none" stroke="#000000" stroke-miterlimit="10" points="480.9,200.4 487.8,197 494.3,195.9 
		498.4,196.8 502.6,195.9 509,197 515.9,200.4 509.5,206.7 502.4,209.5 498.4,210 494.3,209.5 487.3,206.7 	"/>
	<polyline display="inline" fill="none" stroke="#000000" stroke-miterlimit="10" points="480.9,200.4 484.5,200.7 494.5,199.9 
		498.4,200.4 502.4,199.9 512.3,200.7 515.9,200.4 	"/>
	<polyline display="inline" fill="none" stroke="#000000" stroke-miterlimit="10" points="480.9,200.4 484.5,200.7 494.5,202.8 
		498.4,203.6 502.4,202.8 512.3,200.7 515.9,200.4 	"/>
	<circle id="rightTop0" display="inline" cx="478.7" cy="117.6" r="0.8"/>
	<circle id="rightTop1" display="inline" cx="466.1" cy="127.1" r="0.8"/>
</g>
</svg>
