<?xml version="1.0" encoding="utf-8"?>
<!-- Generator: Adobe Illustrator 16.0.3, SVG Export Plug-In . SVG Version: 6.00 Build 0)  -->
<!DOCTYPE svg PUBLIC "-//W3C//DTD SVG 1.0//EN" "http://www.w3.org/TR/2001/REC-SVG-20010904/DTD/svg10.dtd">
<svg version="1.0" id="Layer_1" xmlns="http://www.w3.org/2000/svg" xmlns:xlink="http://www.w3.org/1999/xlink" x="0px" y="0px"
	 width="612px" height="792px" viewBox="0 0 612 792" enable-background="new 0 0 612 792" xml:space="preserve">
<g id="illustration">
	<path fill="#F7D58B" d="M315.119,423.418v77.662c0,81.213,27.295,83.416,27.295,7.528V422.5L315.119,423.418z"/>
	<ellipse fill="#72605A" cx="330.297" cy="561.546" rx="3.243" ry="4.835"/>
	<ellipse fill="#72605A" cx="337.396" cy="554.08" rx="3.244" ry="4.834"/>
	<ellipse fill="#72605A" cx="323.197" cy="558.915" rx="3.243" ry="4.834"/>
	<path fill="#F7D58B" d="M270.076,423.111v77.725c0,81.212,28.948,83.844,28.948,7.466v-86.047L270.076,423.111z"/>
	<ellipse fill="#72605A" cx="290.884" cy="561.546" rx="3.243" ry="4.835"/>
	<ellipse fill="#72605A" cx="281.826" cy="563.749" rx="3.243" ry="4.835"/>
	<ellipse fill="#72605A" cx="275.094" cy="556.711" rx="3.244" ry="4.835"/>
	<path fill="#F7D58B" d="M382.5,346.979c4.59,0.428,9.18,0,13.77,0.551c4.407,0.489,8.63,1.836,12.485,3.978
		c2.938,1.652,5.691,3.794,7.344,6.67s2.143,6.671,0.49,9.608c-1.653,2.938-5.509,4.651-8.568,3.244
		c-2.326-1.04-3.672-3.427-5.569-5.019c-3.733-3.06-9.058-2.876-13.893-3.733c-3.794-0.673-7.466-2.02-11.016-3.366
		c-6.854-2.631-13.587-5.385-20.318-8.323c-1.897-0.856-3.855-1.713-5.324-3.182s-2.326-3.733-1.592-5.691
		c2.57-6.671,8.69-3.06,12.729-1.041C369.22,343.735,375.646,346.367,382.5,346.979z"/>
	<path fill="#232866" d="M264.262,349.488c0,19.462,0,43.636,0,66.831c0,16.341,0,32.191,0,45.655c22.399,0,23.317,0,39.474,0
		c0-13.709,0-29.682,0-45.227c0-22.155,0-43.514,0-56.121c2.326,0,5.753,0,7.896,0c0,12.056,0,33.905,0,56.121
		c0,16.034,0,32.313,0,45.227c17.809,0,13.708,0,36.353,0c0-12.607,0-28.58,0-45.227c0-23.317,0-47.981,0-67.198h-83.722V349.488z"
		/>
	<path fill="#D00006" d="M258.081,367.419c-1.224-1.591-1.775-3.855-1.897-7.405c-0.184-5.385,0.429-10.71,0.551-16.034
		c0.245-10.404,1.102-20.747,2.326-31.089c2.142-17.871,4.284-32.314,18.115-44.554c7.344-6.487,16.524-10.404,27.785-10.404
		c12.179,0,21.91,4.529,29.621,11.934c18.605,17.871,20.196,47.675,20.258,72.4c0,6.365-0.123,12.852-0.307,19.217
		c-0.184,8.813-0.979,9.976-9.547,9.976c-26.255,0-52.326-0.735-78.52-1.347C262.242,370.051,259.61,369.378,258.081,367.419z"/>
	<line fill="none" x1="377.481" y1="401.875" x2="235.008" y2="401.875"/>
	<path fill="#F7D58B" d="M452.911,289.921L452.911,289.921c1.958-0.796,4.162-0.429,5.691,0.979c1.469,1.285,3.366,2.938,5.447,4.59
		c4.223,3.488-2.877,11.261-9.364,6.487c-1.285-0.918-2.447-1.836-3.427-2.754C448.199,296.469,449.056,291.451,452.911,289.921z"/>
	<path fill="#5C0015" d="M217.321,259.708l1.163,25.704c22.95,0.123,36.475-1.041,46.512,8.017l18.972-22.705
		C262.793,258.667,239.108,258.178,217.321,259.708z"/>
	<path fill="#5C0015" d="M330.357,268.337l18.666,24.541c11.628-7.466,29.254-7.527,54.651-7.711v-26.194
		C379.501,257.382,360.896,254.139,330.357,268.337z"/>
	<path fill="#F7D58B" d="M218.977,259.83c-18.625,1.652-47.986,5.447-62.402,8.69s-15.574,24.541,2.105,24.174
		s37.042-2.142,62.191-7.405L218.977,259.83z"/>
	<path fill="#F7D58B" d="M172.033,291.435l-10.404-4.162c0,0-3.733,3.366-7.956,6.854c-4.223,3.488,2.876,11.261,9.364,6.487
		C169.585,295.842,172.033,291.435,172.033,291.435z"/>
	<path fill="#F7D58B" d="M398.718,285.03c24.492,5.601,42.892,7.467,60.173,7.889c17.155,0.361,16.037-22.22,1.989-25.712
		c-14.049-3.492-43.39-7.466-61.416-9.212L398.718,285.03z"/>
	<path fill="#EDCB85" d="M299.574,219.683h12.791c0,0,2.631,41.188,3.488,55.57c-1.285,5.937-5.569,6.916-9.486,6.793
		c-5.019-0.122-9.731-2.876-10.465-7.65L299.574,219.683z"/>
	<path fill="#F7D58B" d="M299.574,219.683h12.791c1.162,11.628-13.22,54.713-16.402,54.713L299.574,219.683z"/>
	<ellipse fill="#F7D58B" cx="305.877" cy="198.569" rx="34.884" ry="35.251"/>
	<g>
		<path id="rightMiddleLip_2_" d="M298.35,218.275c0.184,0,0.306,0.184,0.306,0.306c0,0.123-0.184,0.306-0.306,0.306
			c-0.184,0-0.306-0.184-0.306-0.306C298.044,218.459,298.228,218.275,298.35,218.275z"/>
		<circle id="upperLipBottomMid_1_" cx="305.572" cy="218.459" r="0.306"/>
		<circle id="rightUpperLipBottom1_1_" cx="304.042" cy="218.275" r="0.306"/>
		<path id="leftMiddleLip_2_" d="M312.793,218.275c0.184,0,0.307,0.184,0.307,0.306c0,0.123-0.184,0.306-0.307,0.306
			c-0.122,0-0.306-0.184-0.306-0.306C312.487,218.459,312.609,218.275,312.793,218.275z"/>
		<circle id="leftUpperLipBottom1_1_" cx="307.102" cy="218.275" r="0.306"/>
		<path fill="#DF7977" stroke="#72605A" stroke-width="2" stroke-miterlimit="10" d="M298.656,218.581c0,0,4.712-0.061,6.916-0.061
			c2.203,0,7.283-0.061,7.283-0.061s-4.223,1.591-7.283,1.591C302.45,220.05,298.656,218.581,298.656,218.581z"/>
		<circle id="lowerLipTopMid_2_" cx="305.572" cy="219.683" r="0.306"/>
		<circle id="rightLowerLipTop0_2_" cx="304.042" cy="219.377" r="0.306"/>
		<circle id="leftLowerLipTop0_2_" cx="307.102" cy="219.377" r="0.306"/>
	</g>
	<g>
		<circle fill="#FFFFFF" cx="289.904" cy="196.304" r="5.998"/>
		<ellipse fill="#72605A" cx="289.537" cy="196.794" rx="3.855" ry="3.55"/>
		<circle cx="289.599" cy="196.672" r="2.203"/>
		<circle fill="#FFFFFF" cx="290.761" cy="195.264" r="0.857"/>
		<ellipse fill="#DF7977" cx="288.129" cy="205.607" rx="4.774" ry="2.387"/>
		<circle id="rightEye0_1_" cx="290.884" cy="184.738" r="0.49"/>
		<circle id="rightEye1_1_" cx="294.066" cy="182.473" r="0.49"/>
		<circle id="rightEye5_1_" cx="294.066" cy="186.145" r="0.49"/>
		<circle id="rightEye2_1_" cx="297.921" cy="182.473" r="0.49"/>
		<circle id="rightEye3_1_" cx="301.104" cy="185.044" r="0.49"/>
		<circle id="rightEye4_1_" cx="297.921" cy="185.656" r="0.49"/>
	</g>
	<g>
		<circle fill="#FFFFFF" cx="319.586" cy="196.366" r="5.998"/>
		<ellipse fill="#72605A" cx="319.953" cy="196.855" rx="3.428" ry="3.55"/>
		<circle cx="319.831" cy="196.733" r="2.203"/>
		<circle fill="#FFFFFF" cx="321.178" cy="195.386" r="0.857"/>
		<ellipse fill="#DF7977" cx="319.893" cy="205.607" rx="4.773" ry="2.387"/>
		<circle id="leftEye0_1_" cx="316.832" cy="184.799" r="0.49"/>
		<circle id="leftEye1_1_" cx="313.65" cy="182.534" r="0.49"/>
		<circle id="leftEye5_1_" cx="313.65" cy="186.206" r="0.49"/>
		<circle id="leftEye2_1_" cx="309.794" cy="182.534" r="0.49"/>
		<circle id="leftEye3_1_" cx="306.612" cy="185.105" r="0.49"/>
		<circle id="leftEye4_1_" cx="309.794" cy="185.717" r="0.49"/>
	</g>
	<g>
		<path fill="#2C323A" d="M313.956,187.553c6.548-3.06,8.69-3.06,11.75,0.429C322.646,187.553,322.218,189.695,313.956,187.553z"/>
		<circle id="leftBrow1_1_" cx="324.421" cy="181.004" r="0.49"/>
		<circle id="leftBrow4_1_" cx="309.978" cy="182.29" r="0.49"/>
		<circle id="leftBrow3_1_" cx="316.098" cy="180.331" r="0.49"/>
		<circle id="leftBrow0_1_" cx="326.869" cy="182.779" r="0.49"/>
		<circle id="leftBrow2_1_" cx="320.565" cy="180.086" r="0.49"/>
	</g>
	<g>
		<path fill="#2C323A" d="M295.963,187.186c-6.548-3.06-8.69-3.06-11.75,0.429C287.273,187.186,287.701,189.328,295.963,187.186z"/>
		<circle id="rightBrow1_1_" cx="285.437" cy="180.76" r="0.49"/>
		<circle id="rightBrow4_1_" cx="299.696" cy="182.595" r="0.49"/>
		<circle id="rightBrow3_1_" cx="293.699" cy="180.148" r="0.49"/>
		<circle id="rightBrow0_1_" cx="282.989" cy="183.024" r="0.49"/>
		<circle id="rightBrow2_1_" cx="289.231" cy="180.148" r="0.49"/>
	</g>
	<path fill="#72605A" d="M326.257,170.906c-0.061,2.02,0.612,3.978,2.326,5.753c1.958,2.081,4.59,3.427,6.609,5.386
		c3.855,3.733,5.263,9.363,5.019,14.749c-0.184,3.244-0.429,5.752,0.551,8.813c-0.175-0.553,2.238,2.938,6.671,9.058
		c0.979,0.734,1.958,1.53,3.183,1.775c3.365,0.673,5.997-2.876,7.527-5.998c6.059-11.934,11.812-23.807,7.099-37.148
		c-4.1-11.689-14.81-18.972-27.233-15.544C332.867,159.217,326.44,165.092,326.257,170.906z"/>
	<path fill="#72605A" stroke="#72605A" stroke-miterlimit="10" d="M286.539,171.457c0,2.02-0.673,4.04-2.448,5.814
		c-2.02,2.081-4.712,3.366-6.854,5.325c-3.978,3.672-5.508,9.425-5.385,14.872c0.122,3.244-1.31,7.344-2.351,10.404
		c-1.224,3.549-2.301,5.325-5.3,7.528c-0.979,0.734-2.02,1.53-3.243,1.713c-3.427,0.612-5.998-3.06-7.528-6.181
		c-5.937-12.179-11.505-24.357-6.487-37.76c4.407-11.75,15.361-18.972,27.907-15.239
		C280.051,159.462,286.477,165.521,286.539,171.457z"/>
	<g>
		<path fill="none" stroke="#72605A" stroke-miterlimit="10" d="M290.7,211.115c0.184,0,0.367,0,0.551,0"/>
		<path fill="none" stroke="#72605A" stroke-miterlimit="10" d="M294.188,212.216c0.184,0,0.367,0,0.551,0"/>
		<path fill="none" stroke="#72605A" stroke-miterlimit="10" d="M318.729,213.685c0.184,0,0.367,0,0.551,0"/>
		<path fill="none" stroke="#72605A" stroke-miterlimit="10" d="M317.566,211.115c0.184,0,0.367,0,0.551,0"/>
		<path fill="none" stroke="#72605A" stroke-miterlimit="10" d="M315.303,213.685c0.184,0,0.367,0,0.551,0"/>
		<path fill="none" stroke="#72605A" stroke-miterlimit="10" d="M291.802,213.685c0.184,0,0.367,0,0.551,0"/>
		<path fill="none" stroke="#2C323A" stroke-miterlimit="10" d="M296.331,215.766c2.02,0.918,4.59,0.367,6.242-1.102
			c1.714-1.469,2.632-3.672,2.876-5.937c0.061-0.367,0.306-0.918,0.673-0.734c0,1.285,0,2.631,0.367,3.855
			c0.918,2.876,3.979,4.896,6.978,4.529"/>
		<path fill="#2C323A" stroke="#2C323A" stroke-width="2" stroke-miterlimit="10" d="M307.347,203.893
			c-0.184-0.122-0.367-0.245-0.551-0.306c-2.326-0.857-8.875,3.733-5.569,5.63c0.306,0.184,0.612,0.184,0.979,0.245
			c1.713,0.123,3.55,0.245,5.263,0c0.918-0.123,1.958-0.49,2.265-1.408C310.039,206.831,308.57,204.75,307.347,203.893z"/>
		<circle id="nose1_1_" cx="304.531" cy="188.655" r="0.49"/>
		<circle id="nose0_1_" cx="304.531" cy="185.105" r="0.49"/>
		<circle id="nose3_1_" cx="304.531" cy="196.366" r="0.49"/>
		<circle id="rightNose0_1_" cx="297.983" cy="199.12" r="0.49"/>
		<circle id="rightNose1_1_" cx="301.165" cy="199.12" r="0.49"/>
		<circle id="nose2_1_" cx="304.531" cy="192.02" r="0.49"/>
		<circle id="nose4_1_" cx="304.531" cy="199.609" r="0.49"/>
		<circle id="leftNose0_1_" cx="310.896" cy="199.12" r="0.49"/>
		<circle id="leftNose1_1_" cx="307.958" cy="199.12" r="0.49"/>
	</g>
</g>
<g id="skeleton_1_" display="none">
	<circle id="rightShoulder" display="inline" cx="240.394" cy="270.112" r="5.018"/>
	<circle id="rightElbow" display="inline" cx="177.052" cy="270.173" r="5.019"/>
	<ellipse id="rightWrist" display="inline" cx="77.056" cy="274.089" rx="5.018" ry="5.018"/>
	<circle id="rightHip" display="inline" cx="271.177" cy="402.181" r="5.018"/>
	<circle id="rightKnee" display="inline" cx="275.094" cy="500.224" r="5.019"/>
	<circle id="rightAnkle" display="inline" cx="275.094" cy="627.52" r="5.019"/>
	<circle id="leftShoulder" display="inline" cx="370.688" cy="270.112" r="5.018"/>
	<circle id="leftElbow" display="inline" cx="434.581" cy="269.928" r="5.018"/>
	<circle id="leftWrist" display="inline" cx="534.582" cy="273.783" r="5.018"/>
	<circle id="leftHip" display="inline" cx="342.414" cy="401.691" r="5.019"/>
	<circle id="leftKnee" display="inline" cx="342.414" cy="500.224" r="5.019"/>
	<circle id="leftAnkle" display="inline" cx="342.414" cy="627.52" r="5.019"/>
	<polygon display="inline" fill="none" stroke="#000000" stroke-miterlimit="10" points="240.333,270.295 271.116,402.365 
		342.353,401.875 370.627,270.295 	"/>
	<polyline display="inline" fill="none" stroke="#000000" stroke-miterlimit="10" points="239.72,270.295 176.868,270.295 
		76.928,274.151 	"/>
	<polyline display="inline" fill="none" stroke="#000000" stroke-miterlimit="10" points="371.545,270.05 434.703,270.05 
		534.644,273.967 	"/>
	<polyline display="inline" fill="none" stroke="#000000" stroke-miterlimit="10" points="271.116,402.365 275.033,500.407 
		275.033,627.703 	"/>
	<polyline display="inline" fill="none" stroke="#000000" stroke-miterlimit="10" points="342.353,401.875 342.353,500.407 
		342.353,627.703 	"/>
	<circle id="rightEye0" display="inline" cx="286.783" cy="188.042" r="0.49"/>
	<circle id="rightBrow1" display="inline" cx="285.437" cy="180.76" r="0.49"/>
	<circle id="rightBrow4" display="inline" cx="299.696" cy="182.595" r="0.49"/>
	<circle id="nose1" display="inline" cx="304.531" cy="188.655" r="0.49"/>
	<circle id="rightBrow3" display="inline" cx="293.699" cy="180.148" r="0.49"/>
	<circle id="rightEye1" display="inline" cx="289.966" cy="185.778" r="0.49"/>
	<circle id="rightBrow0" display="inline" cx="282.989" cy="183.024" r="0.49"/>
	<circle id="rightBrow2" display="inline" cx="289.231" cy="180.148" r="0.49"/>
	<circle id="rightEye5" display="inline" cx="289.966" cy="189.45" r="0.49"/>
	<circle id="rightEye2" display="inline" cx="293.821" cy="185.778" r="0.49"/>
	<circle id="rightEye3" display="inline" cx="297.003" cy="188.348" r="0.49"/>
	<circle id="nose0" display="inline" cx="304.531" cy="185.105" r="0.49"/>
	<circle id="nose3" display="inline" cx="304.531" cy="196.366" r="0.49"/>
	<circle id="rightNose0" display="inline" cx="297.983" cy="199.12" r="0.49"/>
	<circle id="rightMouthCorner" display="inline" cx="294.311" cy="212.645" r="0.49"/>
	<circle id="rightNose1" display="inline" cx="301.165" cy="199.12" r="0.49"/>
	<circle id="rightUpperLipTop0" display="inline" cx="298.534" cy="210.564" r="0.49"/>
	<circle id="nose2" display="inline" cx="304.531" cy="192.02" r="0.49"/>
	<circle id="nose4" display="inline" cx="304.531" cy="199.609" r="0.49"/>
	<circle id="upperLipTopMid" display="inline" cx="305.021" cy="210.442" r="0.49"/>
	<circle id="rightUpperLipTop1" display="inline" cx="302.512" cy="209.891" r="0.49"/>
	<path id="rightMiddleLip" display="inline" d="M296.514,212.339c0.245,0,0.489,0.245,0.489,0.489c0,0.245-0.245,0.49-0.489,0.49
		c-0.245,0-0.49-0.245-0.49-0.49C296.024,212.583,296.269,212.339,296.514,212.339z"/>
	<circle id="lowerLipBottomMid" display="inline" cx="305.021" cy="218.52" r="0.49"/>
	<circle id="upperLipBottomMid" display="inline" cx="305.021" cy="212.645" r="0.49"/>
	<circle id="lowerLipTopMid" display="inline" cx="305.021" cy="214.542" r="0.49"/>
	<circle id="rightUpperLipBottom1" display="inline" cx="302.634" cy="212.339" r="0.49"/>
	<circle id="rightLowerLipTop0" display="inline" cx="302.634" cy="214.114" r="0.49"/>
	<circle id="rightLowerLipBottom1" display="inline" cx="302.512" cy="218.214" r="0.49"/>
	<circle id="rightLowerLipBottom0" display="inline" cx="298.228" cy="216.5" r="0.49"/>
	<circle id="rightEye4" display="inline" cx="293.821" cy="188.96" r="0.49"/>
	<circle id="jawMid" display="inline" cx="305.021" cy="234.31" r="0.49"/>
	<circle id="rightJaw7" display="inline" cx="295.841" cy="232.351" r="0.49"/>
	<circle id="rightJaw6" display="inline" cx="289.721" cy="228.251" r="0.49"/>
	<circle id="rightJaw5" display="inline" cx="282.622" cy="220.601" r="0.49"/>
	<circle id="rightJaw4" display="inline" cx="278.46" cy="208.361" r="0.49"/>
	<circle id="rightJaw3" display="inline" cx="277.97" cy="195.08" r="0.49"/>
	<circle id="rightJaw2" display="inline" cx="277.97" cy="189.266" r="0.49"/>
	<circle id="rightJaw1" display="inline" cx="278.46" cy="182.106" r="0.49"/>
	<circle id="rightJaw0" display="inline" cx="279.99" cy="176.414" r="0.49"/>
	<circle id="topMid" display="inline" cx="305.143" cy="160.441" r="0.49"/>
	<circle id="leftTop0" display="inline" cx="317.199" cy="161.971" r="0.49"/>
	<circle id="leftTop1" display="inline" cx="324.911" cy="167.785" r="0.49"/>
	<circle id="leftEye0" display="inline" cx="323.259" cy="188.042" r="0.49"/>
	<circle id="leftBrow1" display="inline" cx="324.421" cy="181.004" r="0.49"/>
	<circle id="leftBrow4" display="inline" cx="309.978" cy="182.29" r="0.49"/>
	<circle id="leftBrow3" display="inline" cx="316.098" cy="180.331" r="0.49"/>
	<circle id="leftEye1" display="inline" cx="320.076" cy="185.778" r="0.49"/>
	<circle id="leftBrow0" display="inline" cx="326.869" cy="182.779" r="0.49"/>
	<circle id="leftBrow2" display="inline" cx="320.565" cy="180.086" r="0.49"/>
	<circle id="leftEye5" display="inline" cx="320.076" cy="189.45" r="0.49"/>
	<circle id="leftEye2" display="inline" cx="316.221" cy="185.778" r="0.49"/>
	<circle id="leftEye3" display="inline" cx="313.038" cy="188.348" r="0.49"/>
	<circle id="leftNose0" display="inline" cx="310.896" cy="199.12" r="0.49"/>
	<circle id="leftMouthCorner" display="inline" cx="315.73" cy="212.645" r="0.49"/>
	<circle id="leftNose1" display="inline" cx="307.958" cy="199.12" r="0.49"/>
	<circle id="leftUpperLipTop0" display="inline" cx="311.508" cy="210.564" r="0.49"/>
	<circle id="leftUpperLipTop1" display="inline" cx="307.591" cy="209.891" r="0.49"/>
	<path id="leftMiddleLip" display="inline" d="M313.527,212.339c0.245,0,0.49,0.245,0.49,0.489c0,0.245-0.245,0.49-0.49,0.49
		c-0.244,0-0.489-0.245-0.489-0.49C313.038,212.583,313.283,212.339,313.527,212.339z"/>
	<circle id="leftUpperLipBottom1" display="inline" cx="307.469" cy="212.339" r="0.49"/>
	<circle id="leftLowerLipTop0" display="inline" cx="307.469" cy="214.114" r="0.49"/>
	<circle id="leftLowerLipBottom1" display="inline" cx="307.591" cy="218.214" r="0.49"/>
	<circle id="leftLowerLipBottom0" display="inline" cx="311.814" cy="216.5" r="0.49"/>
	<circle id="leftEye4" display="inline" cx="316.221" cy="188.96" r="0.49"/>
	<circle id="leftJaw7" display="inline" cx="314.078" cy="232.596" r="0.49"/>
	<circle id="leftJaw6" display="inline" cx="320.198" cy="228.496" r="0.49"/>
	<circle id="leftJaw5" display="inline" cx="327.298" cy="220.784" r="0.49"/>
	<circle id="leftJaw4" display="inline" cx="331.459" cy="208.544" r="0.49"/>
	<circle id="leftJaw3" display="inline" cx="331.949" cy="195.325" r="0.49"/>
	<circle id="leftJaw2" display="inline" cx="331.949" cy="189.45" r="0.49"/>
	<circle id="leftJaw1" display="inline" cx="331.459" cy="182.29" r="0.49"/>
	<circle id="leftJaw0" display="inline" cx="329.929" cy="176.659" r="0.49"/>
	<polyline display="inline" fill="none" stroke="#000000" stroke-miterlimit="10" points="305.021,160.441 292.903,161.971 
		285.253,167.785 279.99,176.415 278.46,182.106 277.97,189.267 277.97,195.081 278.46,208.361 282.622,220.601 289.721,228.251 
		295.841,232.351 305.021,234.31 314.078,232.596 320.198,228.496 327.298,220.784 331.459,208.544 331.949,195.325 331.949,189.45 
		331.459,182.29 329.929,176.659 324.911,167.785 317.199,161.971 305.021,160.441 	"/>
	<polyline display="inline" fill="none" stroke="#000000" stroke-miterlimit="10" points="282.989,183.024 285.437,180.76 
		289.231,180.147 293.699,180.147 299.696,182.596 	"/>
	<polygon display="inline" fill="none" stroke="#000000" stroke-miterlimit="10" points="286.783,188.042 289.966,185.778 
		293.821,185.778 297.003,188.349 293.821,188.96 289.966,189.45 	"/>
	<polyline display="inline" fill="none" stroke="#000000" stroke-miterlimit="10" points="297.983,199.12 301.165,199.12 
		304.531,199.609 304.531,196.366 304.531,192.021 304.531,188.654 304.531,185.105 	"/>
	<polyline display="inline" fill="none" stroke="#000000" stroke-miterlimit="10" points="326.747,182.779 324.299,181.004 
		320.443,180.086 315.976,180.331 309.855,182.29 	"/>
	<polygon display="inline" fill="none" stroke="#000000" stroke-miterlimit="10" points="323.136,188.042 319.893,185.778 
		316.037,185.778 312.916,188.349 316.037,188.96 319.893,189.45 	"/>
	<polyline display="inline" fill="none" stroke="#000000" stroke-miterlimit="10" points="310.896,199.12 307.836,199.12 
		304.531,199.609 	"/>
	<polygon display="inline" fill="none" stroke="#000000" stroke-miterlimit="10" points="294.311,212.645 298.534,210.564 
		302.512,209.891 305.021,210.441 307.591,209.891 311.508,210.564 315.73,212.645 311.814,216.5 307.469,218.214 305.021,218.52 
		302.512,218.214 298.228,216.5 	"/>
	<polyline display="inline" fill="none" stroke="#000000" stroke-miterlimit="10" points="294.311,212.645 296.514,212.828 
		302.634,212.339 305.021,212.645 307.469,212.339 313.527,212.828 315.73,212.645 	"/>
	<polyline display="inline" fill="none" stroke="#000000" stroke-miterlimit="10" points="294.311,212.645 296.514,212.828 
		302.634,214.114 305.021,214.603 307.469,214.114 313.527,212.828 315.73,212.645 	"/>
	<circle id="rightTop0" display="inline" cx="292.964" cy="161.971" r="0.49"/>
	<circle id="rightTop1" display="inline" cx="285.253" cy="167.785" r="0.49"/>
</g>
</svg>
