<?xml version="1.0" encoding="utf-8"?>
<!-- Generator: Adobe Illustrator 16.0.3, SVG Export Plug-In . SVG Version: 6.00 Build 0)  -->
<!DOCTYPE svg PUBLIC "-//W3C//DTD SVG 1.0//EN" "http://www.w3.org/TR/2001/REC-SVG-20010904/DTD/svg10.dtd">
<svg version="1.0" id="Layer_1" xmlns="http://www.w3.org/2000/svg" xmlns:xlink="http://www.w3.org/1999/xlink" x="0px" y="0px"
	 width="1000px" height="1000px" viewBox="0 0 1000 1000" enable-background="new 0 0 1000 1000" xml:space="preserve">
<g id="skeleton_1_" display="none">
	<circle id="rightShoulder" display="inline" cx="392.8" cy="294.3" r="8.2"/>
	<circle id="rightElbow" display="inline" cx="289.3" cy="294.4" r="8.2"/>
	<ellipse id="rightWrist" display="inline" cx="125.896" cy="300.79" rx="8.2" ry="8.2"/>
	<circle id="rightHip" display="inline" cx="443.1" cy="510.1" r="8.2"/>
	<circle id="rightKnee" display="inline" cx="449.5" cy="670.3" r="8.2"/>
	<circle id="rightAnkle" display="inline" cx="449.5" cy="878.3" r="8.2"/>
	<circle id="leftShoulder" display="inline" cx="605.7" cy="294.3" r="8.2"/>
	<circle id="leftElbow" display="inline" cx="710.1" cy="294" r="8.2"/>
	<circle id="leftWrist" display="inline" cx="873.5" cy="300.3" r="8.2"/>
	<circle id="leftHip" display="inline" cx="559.5" cy="509.3" r="8.2"/>
	<circle id="leftKnee" display="inline" cx="559.5" cy="670.3" r="8.2"/>
	<circle id="leftAnkle" display="inline" cx="559.5" cy="878.3" r="8.2"/>
	<polygon display="inline" fill="none" stroke="#000000" stroke-miterlimit="10" points="392.7,294.6 443,510.4 559.4,509.6 
		605.6,294.6 	"/>
	<polyline display="inline" fill="none" stroke="#000000" stroke-miterlimit="10" points="391.7,294.6 289,294.6 125.7,300.9 	"/>
	<polyline display="inline" fill="none" stroke="#000000" stroke-miterlimit="10" points="607.1,294.2 710.3,294.2 873.6,300.6 	"/>
	<polyline display="inline" fill="none" stroke="#000000" stroke-miterlimit="10" points="443,510.4 449.4,670.6 449.4,878.6 	"/>
	<polyline display="inline" fill="none" stroke="#000000" stroke-miterlimit="10" points="559.4,509.6 559.4,670.6 559.4,878.6 	"/>
	<circle id="rightEye0" display="inline" cx="468.6" cy="160.2" r="0.8"/>
	<circle id="rightBrow1" display="inline" cx="466.4" cy="148.3" r="0.8"/>
	<circle id="rightBrow4" display="inline" cx="489.7" cy="151.3" r="0.8"/>
	<circle id="nose1" display="inline" cx="497.6" cy="161.2" r="0.8"/>
	<circle id="rightBrow3" display="inline" cx="479.9" cy="147.3" r="0.8"/>
	<circle id="rightEye1" display="inline" cx="473.8" cy="156.5" r="0.8"/>
	<circle id="rightBrow0" display="inline" cx="462.4" cy="152" r="0.8"/>
	<circle id="rightBrow2" display="inline" cx="472.6" cy="147.3" r="0.8"/>
	<circle id="rightEye5" display="inline" cx="473.8" cy="162.5" r="0.8"/>
	<circle id="rightEye2" display="inline" cx="480.1" cy="156.5" r="0.8"/>
	<circle id="rightEye3" display="inline" cx="485.3" cy="160.7" r="0.8"/>
	<circle id="nose0" display="inline" cx="497.6" cy="155.4" r="0.8"/>
	<circle id="nose3" display="inline" cx="497.6" cy="173.8" r="0.8"/>
	<circle id="rightNose0" display="inline" cx="486.9" cy="178.3" r="0.8"/>
	<circle id="rightMouthCorner" display="inline" cx="480.9" cy="200.4" r="0.8"/>
	<circle id="rightNose1" display="inline" cx="492.1" cy="178.3" r="0.8"/>
	<circle id="rightUpperLipTop0" display="inline" cx="487.8" cy="197" r="0.8"/>
	<circle id="nose2" display="inline" cx="497.6" cy="166.7" r="0.8"/>
	<circle id="nose4" display="inline" cx="497.6" cy="179.1" r="0.8"/>
	<circle id="upperLipTopMid" display="inline" cx="498.4" cy="196.8" r="0.8"/>
	<circle id="rightUpperLipTop1" display="inline" cx="494.3" cy="195.9" r="0.8"/>
	<path id="rightMiddleLip" display="inline" d="M484.5,199.9c0.4,0,0.8,0.4,0.8,0.8c0,0.4-0.396,0.8-0.8,0.8s-0.8-0.4-0.8-0.8
		C483.7,200.3,484.1,199.9,484.5,199.9z"/>
	<circle id="lowerLipBottomMid" display="inline" cx="498.4" cy="210" r="0.8"/>
	<circle id="upperLipBottomMid" display="inline" cx="498.4" cy="200.4" r="0.8"/>
	<circle id="lowerLipTopMid" display="inline" cx="498.4" cy="203.5" r="0.8"/>
	<circle id="rightUpperLipBottom1" display="inline" cx="494.5" cy="199.9" r="0.8"/>
	<circle id="rightLowerLipTop0" display="inline" cx="494.5" cy="202.8" r="0.8"/>
	<circle id="rightLowerLipBottom1" display="inline" cx="494.3" cy="209.5" r="0.8"/>
	<circle id="rightLowerLipBottom0" display="inline" cx="487.3" cy="206.7" r="0.8"/>
	<circle id="rightEye4" display="inline" cx="480.1" cy="161.7" r="0.8"/>
	<circle id="jawMid" display="inline" cx="498.4" cy="235.8" r="0.8"/>
	<circle id="rightJaw7" display="inline" cx="483.4" cy="232.6" r="0.8"/>
	<circle id="rightJaw6" display="inline" cx="473.4" cy="225.9" r="0.8"/>
	<circle id="rightJaw5" display="inline" cx="461.8" cy="213.4" r="0.8"/>
	<circle id="rightJaw4" display="inline" cx="455" cy="193.4" r="0.8"/>
	<circle id="rightJaw3" display="inline" cx="454.2" cy="171.7" r="0.8"/>
	<circle id="rightJaw2" display="inline" cx="454.2" cy="162.2" r="0.8"/>
	<circle id="rightJaw1" display="inline" cx="455" cy="150.5" r="0.8"/>
	<circle id="rightJaw0" display="inline" cx="457.5" cy="141.2" r="0.8"/>
	<circle id="topMid" display="inline" cx="498.6" cy="115.1" r="0.8"/>
	<circle id="leftTop0" display="inline" cx="518.3" cy="117.6" r="0.8"/>
	<circle id="leftTop1" display="inline" cx="530.9" cy="127.1" r="0.8"/>
	<circle id="leftEye0" display="inline" cx="528.2" cy="160.2" r="0.8"/>
	<circle id="leftBrow1" display="inline" cx="530.1" cy="148.7" r="0.8"/>
	<circle id="leftBrow4" display="inline" cx="506.5" cy="150.8" r="0.8"/>
	<circle id="leftBrow3" display="inline" cx="516.5" cy="147.6" r="0.8"/>
	<circle id="leftEye1" display="inline" cx="523" cy="156.5" r="0.8"/>
	<circle id="leftBrow0" display="inline" cx="534.1" cy="151.6" r="0.8"/>
	<circle id="leftBrow2" display="inline" cx="523.8" cy="147.2" r="0.8"/>
	<circle id="leftEye5" display="inline" cx="523" cy="162.5" r="0.8"/>
	<circle id="leftEye2" display="inline" cx="516.7" cy="156.5" r="0.8"/>
	<circle id="leftEye3" display="inline" cx="511.5" cy="160.7" r="0.8"/>
	<circle id="leftNose0" display="inline" cx="508" cy="178.3" r="0.8"/>
	<circle id="leftMouthCorner" display="inline" cx="515.9" cy="200.4" r="0.8"/>
	<circle id="leftNose1" display="inline" cx="503.2" cy="178.3" r="0.8"/>
	<circle id="leftUpperLipTop0" display="inline" cx="509" cy="197" r="0.8"/>
	<circle id="leftUpperLipTop1" display="inline" cx="502.6" cy="195.9" r="0.8"/>
	<path id="leftMiddleLip" display="inline" d="M512.3,199.9c0.4,0,0.8,0.4,0.8,0.8c0,0.4-0.396,0.8-0.8,0.8
		c-0.396,0-0.8-0.4-0.8-0.8C511.5,200.3,511.9,199.9,512.3,199.9z"/>
	<circle id="leftUpperLipBottom1" display="inline" cx="502.4" cy="199.9" r="0.8"/>
	<circle id="leftLowerLipTop0" display="inline" cx="502.4" cy="202.8" r="0.8"/>
	<circle id="leftLowerLipBottom1" display="inline" cx="502.6" cy="209.5" r="0.8"/>
	<circle id="leftLowerLipBottom0" display="inline" cx="509.5" cy="206.7" r="0.8"/>
	<circle id="leftEye4" display="inline" cx="516.7" cy="161.7" r="0.8"/>
	<circle id="leftJaw7" display="inline" cx="513.2" cy="233" r="0.8"/>
	<circle id="leftJaw6" display="inline" cx="523.2" cy="226.3" r="0.8"/>
	<circle id="leftJaw5" display="inline" cx="534.8" cy="213.7" r="0.8"/>
	<circle id="leftJaw4" display="inline" cx="541.6" cy="193.7" r="0.8"/>
	<circle id="leftJaw3" display="inline" cx="542.4" cy="172.1" r="0.8"/>
	<circle id="leftJaw2" display="inline" cx="542.4" cy="162.5" r="0.8"/>
	<circle id="leftJaw1" display="inline" cx="541.6" cy="150.8" r="0.8"/>
	<circle id="leftJaw0" display="inline" cx="539.1" cy="141.6" r="0.8"/>
	<polyline display="inline" fill="none" stroke="#000000" stroke-miterlimit="10" points="498.4,115.1 478.6,117.6 466.1,127.1 
		457.5,141.2 455,150.5 454.2,162.2 454.2,171.7 455,193.4 461.8,213.4 473.4,225.9 483.4,232.6 498.4,235.8 513.2,233 523.2,226.3 
		534.8,213.7 541.6,193.7 542.4,172.1 542.4,162.5 541.6,150.8 539.1,141.6 530.9,127.1 518.3,117.6 498.4,115.1 	"/>
	<polyline display="inline" fill="none" stroke="#000000" stroke-miterlimit="10" points="462.4,152 466.4,148.3 472.6,147.3 
		479.9,147.3 489.7,151.3 	"/>
	<polygon display="inline" fill="none" stroke="#000000" stroke-miterlimit="10" points="468.6,160.2 473.8,156.5 480.1,156.5 
		485.3,160.7 480.1,161.7 473.8,162.5 	"/>
	<polyline display="inline" fill="none" stroke="#000000" stroke-miterlimit="10" points="486.9,178.3 492.1,178.3 497.6,179.1 
		497.6,173.8 497.6,166.7 497.6,161.2 497.6,155.4 	"/>
	<polyline display="inline" fill="none" stroke="#000000" stroke-miterlimit="10" points="533.9,151.6 529.9,148.7 523.6,147.2 
		516.3,147.6 506.3,150.8 	"/>
	<polygon display="inline" fill="none" stroke="#000000" stroke-miterlimit="10" points="528,160.2 522.7,156.5 516.4,156.5 
		511.3,160.7 516.4,161.7 522.7,162.5 	"/>
	<polyline display="inline" fill="none" stroke="#000000" stroke-miterlimit="10" points="508,178.3 503,178.3 497.6,179.1 	"/>
	<polygon display="inline" fill="none" stroke="#000000" stroke-miterlimit="10" points="480.9,200.4 487.8,197 494.3,195.9 
		498.4,196.8 502.6,195.9 509,197 515.9,200.4 509.5,206.7 502.4,209.5 498.4,210 494.3,209.5 487.3,206.7 	"/>
	<polyline display="inline" fill="none" stroke="#000000" stroke-miterlimit="10" points="480.9,200.4 484.5,200.7 494.5,199.9 
		498.4,200.4 502.4,199.9 512.3,200.7 515.9,200.4 	"/>
	<polyline display="inline" fill="none" stroke="#000000" stroke-miterlimit="10" points="480.9,200.4 484.5,200.7 494.5,202.8 
		498.4,203.6 502.4,202.8 512.3,200.7 515.9,200.4 	"/>
	<circle id="rightTop0" display="inline" cx="478.7" cy="117.6" r="0.8"/>
	<circle id="rightTop1" display="inline" cx="466.1" cy="127.1" r="0.8"/>
</g>
<g id="illustration">
	<path fill="#60504B" d="M523.3,868v46.8c0,48.8,55.4,50.3,55.4,4.5v-51.8L523.3,868z"/>
	<rect x="535.7" y="889.3" fill="#FFFFFF" width="30.6" height="4.4"/>
	<rect x="535.7" y="897.7" fill="#FFFFFF" width="30.6" height="4.396"/>
	<rect x="535.7" y="906.2" fill="#FFFFFF" width="30.6" height="4.396"/>
	<path fill="#60504B" d="M420,868v46.8c0,48.8,55.4,50.3,55.4,4.5v-51.8L420,868z"/>
	<path fill="#2D1414" d="M390.904,493.8c-6.904,68.2,0,148.9,0,228.2c0,57.105-2.309,109.7,2.596,155
		c56.202,4.398,54.2,2.159,95-2.5c4.4-45.8,2.667-96.229,2.667-149.333c0-83.57,0.524-65.839,2.333-99.667
		c3.9-9.75,9.337-8.166,12.333,0.334c3.004,41.5,3,22.533,3,98.333c0,54.9-0.833,104.033,3.667,151.333c40.5,5.2,80.3,4.7,87-0.5
		c8.3-40.3,2.7-94.7,2.7-151.7c0-79.5,6.8-165.3,0-229.5H390.904L390.904,493.8z"/>
	<rect x="432.4" y="889.3" fill="#FFFFFF" width="30.6" height="4.4"/>
	<rect x="432.4" y="897.7" fill="#FFFFFF" width="30.6" height="4.396"/>
	<rect x="432.4" y="906.2" fill="#FFFFFF" width="30.6" height="4.396"/>
	<path fill="#ABD1D5" d="M387.836,497c-1.5-63-4.936-104.9,20.164-155.4c8.4-16.8,18.9-31.5,32-42.5c15.7-13.2,35.3-21.2,59.4-21.2
		c26.1,0,46.896,9.2,63.396,24.3c10.3,9.4,19,21.2,26.2,34.4c27.5,50.4,16.227,158.5,16.227,208.4l-217.125-3.01L387.836,497z"/>
	<rect x="498.001" y="305.265" fill="#123D3F" width="4" height="238.255"/>
	<ellipse fill="#2B496B" cx="499.999" cy="324.012" rx="3.899" ry="4.612"/>
	<ellipse fill="#2B496B" cx="500.075" cy="498.412" rx="3.899" ry="4.612"/>
	<ellipse fill="#2B496B" cx="499.8" cy="368.529" rx="3.899" ry="4.612"/>
	<ellipse fill="#2B496B" cx="500.075" cy="410.029" rx="3.899" ry="4.612"/>
	<ellipse fill="#2B496B" cx="500.075" cy="450.279" rx="3.899" ry="4.612"/>
	<line fill="none" x1="616.8" y1="509.6" x2="384" y2="509.6"/>
	<path fill="#FFFFFF" d="M499.202,272.665c12.149,0,28.1,7.298,28.1,16.3c0,9.002-15.95,16.3-28.1,16.3
		c-12.15,0-27.5-7.944-27.5-16.947C471.702,279.316,487.052,272.665,499.202,272.665z"/>
	<path fill="#FCAE54" d="M843.8,326.2l17-6.8c0,0,6.104,5.5,13,11.2c6.9,5.7-4.7,18.4-15.3,10.6
		C847.8,333.4,843.8,326.2,843.8,326.2z"/>
	<path fill="#6FBDC1" d="M285.8,267.1l3,56.8c58.9,0.3,93.5-2.3,119.3,17.7l48.7-50.2C402.5,264.7,341.8,263.7,285.8,267.1z"/>
	<path fill="#6FBDC1" d="M545.7,290.4l43.3,53.2c27-16.2,67.7-16.3,126.6-16.7v-56.8C659.6,266.7,616.4,259.7,545.7,290.4z"/>
	<path fill="#FCAE54" d="M291,273.7c-47.7,2.7-123.1,8.9-160.2,14.2c-37.1,5.3-40.1,40.1,5.3,39.5s95.2-3.5,159.7-12.1L291,273.7z"
		/>
	<path fill="#FCAE54" d="M155.6,326.2l-17-6.8c0,0-6.1,5.5-13,11.2c-6.9,5.7,4.7,18.4,15.3,10.6
		C151.6,333.4,155.6,326.2,155.6,326.2z"/>
	<path fill="#FCAE54" d="M709.7,318.3c64.5,8.6,113.3,11.5,158.7,12.1c45.396,0.6,42.396-34.2,5.3-39.5
		c-37.104-5.3-114.5-11.5-162.2-14.2L709.7,318.3z"/>
	<path fill="#FCAE54" d="M480.9,212.825l39.202,2.228c0,0,1.703,50.447,3.099,73.947c-2.1,9.7-16.301,10.034-22.701,9.833
		c-8.195-0.2-22.345-3.033-23.549-10.833L480.9,212.825z"/>
	<path fill="#E8882A" d="M489.5,211.9h20.9c1.896,19-22.601,82.7-27.801,82.7L489.5,211.9z"/>
	<ellipse fill="#F3AF9D" cx="499.8" cy="177.4" rx="57" ry="57.6"/>
	<path fill="#FCAE54" stroke="#000000" stroke-miterlimit="10" d="M470.61,107.547c-0.807,0.009-4.509,3.56-2.082,1.88
		c-2.305,2.038,0.581-2.868,10.457-5.056c3.864-0.857,8.088,0.072,11.759-1.578c5.729-2.574,13.948-14.412,16.741-20.626
		c0.77,8.378,1.184,12.848-2.5,19.727c5.164,0.454,7.5-3.007,10.875-7.688c0.405,4.393,0.248,6.832-2.041,10.269
		c-1.334,2.003-2.76,2.983-4.135,5.263c3.333-2.794,11.112,1.199,12.635,3.167c1.354,1.751-1.923-0.684,2.319,1.726
		c-0.079-2.581-1.572,0.381-2.614-2.041c0.481-4.068,11.017-7.343,13.86-8.756c4.676-2.325,10.119-4.544,15.268-7.135
		c4.72-3.199,19.752-5.702,26.403-6.758c6.196-0.983,8.844,4.088,8.597,11.773c-0.191,5.961-5.735,28.779-6.334,31.116
		c-2.19,7.966-8.062,29.651-10.999,33.67c-3.066,4.194-11.762,8.477-9.777,13.1c3.7,8.625,11.041,13.851,17.086,18.029
		c-3.241,1.762-8.729,4.199-12.188,2.223c1.753,1.529,5.477,2.632,7.548,2.437c-1.61,1.997-6.397,1.813-8.383,3.185
		c1.229,1.25,3.022,2.131,4.674,2.221c-0.708,2.121-12.64,4.628-14.505,4.948c5.617-1.201,16.229-0.355,11.964,2.348
		c-6,8.383-12.75,18.163-18.55,22.354c-9.172,6.628-12.5,5.701-22.5,9.874c-2.146,0.896-2.146,0.896-5.7,2.869
		c-1.833,1.017-7.8,5.647-9.5,6.581c-3.601,2.225-3.601,2.225-6.7,2.11c-4.832-0.178-5.427-0.239-9.2-1.874
		c-2.398-1.04-10.398-8.606-14.199-9.956c-4.004-1.421-5-1.696-11.801-3.904c-0.037-0.239-4.263-3.32-4.3-3.559
		c-4.141-3.923,0.2-0.465-6-5.495c-5.124-4.157-20.248-15.598-21.05-23.696c2.038-0.13,5.994-2.598,8.05-2.601
		c-2.362-0.96-8.882,0.606-9.55-3.21c2.351-0.151,4.953-0.588,6.75-2.195c-3.997-1.323-7.396-1.28-11-3.505
		c2.944-0.754,4.486-2.073,7.494-1.651c-5.328-1.018-6.65-1.376-11.627-3.331c2.941-4.697,16.633-6.307,17.933-15.137
		c1.007-6.839-4.633-4.024-12.688-15.177c-2.934-3.054-4.999-11.163-6.352-15.859c-1.713-5.951-3.69-12.452-5.002-18.12
		c-1.532-6.621-7.258-30.947-2.925-36.536c2.952-3.808,2.226-3.17,7-2.236c7.54,1.477,14.201,1.005,27.333,6.707
		c4.594,1.995,5.977,2.805,8.133,4.098c4.592,2.752,5.09,2.859,9.09,7.702c-0.372,1.991-2.577,0.973-3.39,2.777
		c8.55-5.945,3.758-2.314,4.123-3.559c1.829-0.899,4.338-2.384,2.085-1.324"/>
	<path fill="#EA899A" stroke="#000000" stroke-miterlimit="10" d="M542.4,121.012c5.939-8.354,9.08-11.066,19.024-14.919
		c3.277-1.27,9.864-5.614,11.407-1.925c1.521,3.642,1.358,12.34,0.593,16.332c-0.773,4.037-2.646,7.905-3.601,11.991
		c-0.998,4.277-1.776,8.626-2.642,13.026c-1.479,7.531-3.092,18.862-13.293,17.924c-2.493-7.479-1.857-15.928-3.799-23.608
		c-0.871-3.45-2.198-7.292-4.259-10.332C543.861,126.59,541.313,124.063,542.4,121.012c0.522,0.081-0.487,1.53-0.244,1.798"/>
	<path fill="#EA899A" stroke="#000000" stroke-miterlimit="10" d="M456.417,121.012c-5.94-8.354-9.08-11.066-19.025-14.919
		c-3.276-1.27-9.863-5.614-11.406-1.925c-1.522,3.642-1.358,12.34-0.594,16.332c0.774,4.037,2.647,7.905,3.602,11.991
		c0.998,4.277,1.775,8.626,2.641,13.026c1.479,7.531,3.092,18.862,13.293,17.924c2.494-7.479,1.858-15.928,3.799-23.608
		c0.871-3.45,2.198-7.292,4.26-10.332C454.957,126.59,457.505,124.063,456.417,121.012c-0.523,0.081,0.487,1.53,0.244,1.798"/>
	<g>
		<ellipse fill="#FFFFFF" cx="472.999" cy="188.236" rx="15.579" ry="27.836"/>
		<path fill="#104C8E" d="M472.252,174.6c6.77,0,12.257,8.198,12.257,18.314c0,10.112-5.487,18.31-12.257,18.31
			c-6.766,0-12.252-8.198-12.252-18.31C460,182.798,465.486,174.6,472.252,174.6z"/>
		<ellipse fill="#2C323A" cx="472.999" cy="193.912" rx="6.594" ry="9.422"/>
		<ellipse fill="#FCFCFC" cx="475.019" cy="188.236" rx="1.619" ry="1.636"/>
		<circle id="rightEye0_1_" cx="468.6" cy="160.2" r="0.8"/>
		<circle id="rightEye1_1_" cx="473.8" cy="156.5" r="0.8"/>
		<circle id="rightEye5_1_" cx="473.8" cy="162.5" r="0.8"/>
		<circle id="rightEye2_1_" cx="480.1" cy="156.5" r="0.8"/>
		<circle id="rightEye3_1_" cx="485.3" cy="160.7" r="0.8"/>
		<circle id="rightEye4_1_" cx="480.1" cy="161.7" r="0.8"/>
	</g>
	<g>
		<ellipse fill="#F9F7F7" cx="528" cy="189.115" rx="15.135" ry="28.915"/>
		<path fill="#104C8E" d="M527.998,175.45c6.77,0,12.257,7.781,12.257,17.383c0,9.599-5.487,17.379-12.257,17.379
			c-6.766,0-12.252-7.781-12.252-17.379C515.746,183.231,521.232,175.45,527.998,175.45z"/>
		<ellipse fill="#2C323A" cx="526.959" cy="192.912" rx="6.858" ry="9.131"/>
		<ellipse fill="#F7F9FC" cx="525.357" cy="187.418" rx="1.443" ry="1.5"/>
		<circle id="leftEye0_1_" cx="528.2" cy="160.2" r="0.8"/>
		<circle id="leftEye1_1_" cx="523" cy="156.5" r="0.8"/>
		<circle id="leftEye5_1_" cx="523" cy="162.5" r="0.8"/>
		<circle id="leftEye2_1_" cx="516.7" cy="156.5" r="0.8"/>
		<circle id="leftEye3_1_" cx="511.5" cy="160.7" r="0.8"/>
		<circle id="leftEye4_1_" cx="516.7" cy="161.7" r="0.8"/>
	</g>
	<path fill="#F9E4B7" stroke="#000000" stroke-miterlimit="10" d="M469.4,244.106c-2.237-1.212-3.33-1.958-5.567-3.439
		c-0.114-0.237-0.883-0.816-0.941-1.075c-0.431,0.037-1.146-0.938-1.892-1.884c-1.89-3.077-2.324-6.767-2.5-11.015
		c-0.071-1.71,1.251-5.765,1.9-7.275c0.77-1.79,5.144-4.643,6.5-5.257c5.575-2.524,11.809-1.538,17.035,1.41
		c3.731,2.103,1.363,2.265,0.563,5.222c-0.663,2.449-0.792,7.472,1.6,8.333c5.271,1.896,4.389,2.496,9.2,1.125
		c2.46-0.542,4.587-1.973,6.908-1.23c0.657,1.056,2.833,0.707,3.542,1.654c2.95,0.685,6.152,0.48,8.25-1.377
		c2.703-2.395,2.345-5.848,0.688-8.494c-1.91-3.048-4.826-5.633-8.188-6.601c-3.332-0.959-8.281-0.38-12.013,0.23
		c-3.896,0.637-9.338,1.928-9.987,6.36c-0.382,2.621,0.478,7.562,1.6,8.333c3.282,2.255,11.533,1.574,14.149-1.322
		c1.127,1.464,3.741,1.977,5.501,2.871c2.094,1.064,6.916,0.37,8.25-1.377c1.899-2.486,2.179-0.527,1.979-4.194
		c-0.192-3.529-2.578-4.372-2.778-6.602c4.084-1.312,4.554-3.182,9-3.998c5.2-0.955,10.816-0.457,14.203,2.98
		c4.198,4.263,7.642,23.199-0.805,25.771c-3.3,1.004-6.718,1.237-10.198,3.011c-3.634,1.851-6.354,2.7-9.7,4.769
		c-6.391,3.95-10.874,9.58-19.104,7.244c-4.795-1.361-9.92-6.718-14.097-9.258c-3.162-1.923-2.527-1.108-4.598-2.166
		C475.651,245.706,471.731,245.124,469.4,244.106"/>
	<path fill="none" stroke="#000000" stroke-miterlimit="10" d="M509.746,227.272c1.919-0.171,9.25,2.162,11.321,3.151
		c7.919,3.786,5.495,1.245,9.389,3.679"/>
	<path fill="none" stroke="#000000" stroke-miterlimit="10" d="M509.201,224.484c1.79-0.713,9.481-0.577,11.75-0.222
		c8.671,1.36,5.622-0.38,10.049,0.837"/>
	<path fill="none" stroke="#000000" stroke-miterlimit="10" d="M488.6,221.416c-1.79-0.713-9.383-3.293-11.649-2.938
		c-3.072,0.482-4.372-0.877-8.351,0.272"/>
	<path fill="none" stroke="#000000" stroke-miterlimit="10" d="M488.699,223.826c-1.79-0.713-9.482-0.577-11.75-0.222
		c-8.671,1.36-5.623-0.38-10.049,0.837"/>
	<path fill="none" stroke="#000000" stroke-miterlimit="10" d="M489.655,225.909c-1.919-0.171-9.251,2.162-11.322,3.151
		c-7.919,3.786-5.496,1.245-9.389,3.679"/>
	<path fill="none" stroke="#000000" stroke-miterlimit="10" d="M510.101,221.845c1.79-0.713,9.384-3.293,11.649-2.938
		c3.072,0.482,4.372-0.877,8.35,0.272"/>
	<path fill="#EA899A" stroke="#000000" stroke-miterlimit="10" d="M501.75,225.021c0.119-0.029,1.128-0.672,1.251-0.708
		c1.79-1.32,0.905-0.313,2.655-1.969c0.866-0.82,0.962-1.28,0.969-2.219c0.01-1.322-0.723-1.847-1.875-2.219
		c-1.954-0.631-12.515-1.494-11.25,2.875c0.384,1.327,1.329,1.883,2.313,2.781C497.027,224.671,499.877,226.197,501.75,225.021
		c0.584-0.313-0.59,0.247-0.271,0.083"/>
	<g>
		<path id="rightMiddleLip_2_" d="M493.35,233.275c0.184,0,0.306,0.184,0.306,0.306c0,0.123-0.184,0.306-0.306,0.306
			c-0.184,0-0.306-0.184-0.306-0.306C493.044,233.459,493.228,233.275,493.35,233.275z"/>
		<circle id="upperLipBottomMid_1_" cx="500.572" cy="233.459" r="0.306"/>
		<circle id="rightUpperLipBottom1_1_" cx="499.042" cy="233.275" r="0.306"/>
		<path id="leftMiddleLip_2_" d="M507.793,233.275c0.184,0,0.307,0.184,0.307,0.306c0,0.123-0.184,0.306-0.307,0.306
			c-0.122,0-0.306-0.184-0.306-0.306C507.487,233.459,507.609,233.275,507.793,233.275z"/>
		<circle id="leftUpperLipBottom1_1_" cx="502.102" cy="233.275" r="0.306"/>
		<path fill="#DF7977" stroke="#72605A" stroke-width="2" stroke-miterlimit="10" d="M493.656,233.581c0,0,4.712-0.061,6.916-0.061
			c2.202,0,7.282-0.061,7.282-0.061s-4.223,1.591-7.282,1.591C497.45,235.05,493.656,233.581,493.656,233.581z"/>
		<circle id="lowerLipTopMid_2_" cx="500.572" cy="234.683" r="0.306"/>
		<circle id="rightLowerLipTop0_2_" cx="499.042" cy="234.377" r="0.306"/>
		<circle id="leftLowerLipTop0_2_" cx="502.102" cy="234.377" r="0.306"/>
	</g>
	<g>
		<path fill="#060707" d="M521.367,137.55c-2.282,1.417-2.282,4.034-2.282,6.284c8.545,0.424,12.694,2.201,18.631,8.266
			c-0.183-8.188-8.856-13.347-16.016-14.883"/>
		<circle id="leftBrow1_1_" cx="530.1" cy="148.7" r="0.8"/>
		<circle id="leftBrow4_1_" cx="506.5" cy="150.8" r="0.8"/>
		<circle id="leftBrow3_1_" cx="516.5" cy="147.6" r="0.8"/>
		<circle id="leftBrow0_1_" cx="534.1" cy="151.6" r="0.8"/>
		<circle id="leftBrow2_1_" cx="523.8" cy="147.2" r="0.8"/>
	</g>
	<g>
		<path fill="#060707" d="M475.218,137.55c2.282,1.417,2.282,4.034,2.282,6.284c-8.545,0.424-12.694,2.201-18.631,8.266
			c0.183-8.188,8.857-13.347,16.016-14.883"/>
		<circle id="rightBrow1_1_" cx="466.4" cy="148.3" r="0.8"/>
		<circle id="rightBrow4_1_" cx="489.7" cy="151.3" r="0.8"/>
		<circle id="rightBrow3_1_" cx="479.9" cy="147.3" r="0.8"/>
		<circle id="rightBrow0_1_" cx="462.4" cy="152" r="0.8"/>
		<circle id="rightBrow2_1_" cx="472.6" cy="147.3" r="0.8"/>
	</g>
	<g>
		<circle id="nose1_1_" cx="497.6" cy="161.2" r="0.8"/>
		<circle id="nose0_1_" cx="497.6" cy="155.4" r="0.8"/>
		<circle id="nose3_1_" cx="497.6" cy="173.8" r="0.8"/>
		<circle id="rightNose0_1_" cx="486.9" cy="178.3" r="0.8"/>
		<circle id="rightNose1_1_" cx="492.1" cy="178.3" r="0.8"/>
		<circle id="nose2_1_" cx="497.6" cy="166.7" r="0.8"/>
		<circle id="nose4_1_" cx="497.6" cy="179.1" r="0.8"/>
		<circle id="leftNose0_1_" cx="508" cy="178.3" r="0.8"/>
		<circle id="leftNose1_1_" cx="503.2" cy="178.3" r="0.8"/>
	</g>
</g>
</svg>
