<?xml version="1.0" encoding="utf-8"?>
<!-- Generator: Adobe Illustrator 24.1.0, SVG Export Plug-In . SVG Version: 6.00 Build 0)  -->
<svg version="1.1" id="Layer_1" xmlns="http://www.w3.org/2000/svg" xmlns:xlink="http://www.w3.org/1999/xlink" x="0px" y="0px"
	 viewBox="0 0 1200 1200" style="enable-background:new 0 0 1200 1200;" xml:space="preserve">
<style type="text/css">
	.st0{fill:#B2B0A1;}
	.st1{fill:#65645A;}
	.st2{fill:#B6B4A4;}
	.st3{fill:none;}
	.st4{fill:#F3AF9D;}
	.st5{fill:#2C323A;}
	.st6{fill:#FFFFFF;}
	.st7{fill:#2C323A;stroke:#2C323A;stroke-width:2;stroke-miterlimit:10;}
	.st8{display:none;}
	.st9{display:inline;fill:none;stroke:#000000;stroke-miterlimit:10;}
	.st10{display:inline;}
</style>
<g id="illustration_1_">
	<path class="st0" d="M636.9,923v25.8c0,26.9,82.1,27.7,82.1,2.5v-28.5L636.9,923z"/>
	<path class="st0" d="M531.8,923v25.8c0,26.9,81.4,27.7,81.4,2.5v-28.5L531.8,923z"/>
	<path class="st1" d="M531.8,552.8c0,66.4,0,148.9,0,228.2c0,55.8,0,110,0,155.8c50.1,0,45.9,0,82.1,0c0-46.8,0-101.4,0-154.5
		c0-75.9,0-148.8,0-191.6c5.2,0,18.1,0,23,0c0,41.3,0,115.8,0,191.6c0,54.9,0,110.4,0,154.5c39.9,0,31.5,0,82.1,0
		c0-43,0-97.5,0-154.5c0-79.5,0-164,0-229.5L531.8,552.8L531.8,552.8z"/>
	<g>
		<ellipse class="st2" cx="711.6" cy="218.8" rx="4.4" ry="10.6"/>
		<ellipse class="st2" cx="544.4" cy="218.8" rx="4.4" ry="10.6"/>
		<circle id="jawMid_2_" cx="625.5" cy="284.1" r="0.8"/>
		<circle id="rightJaw7_2_" cx="614.6" cy="282.1" r="0.8"/>
		<circle id="leftJaw7_2_" cx="636.4" cy="282.1" r="0.8"/>
		<circle id="rightJaw3_2_" cx="580.3" cy="226.6" r="0.8"/>
		<circle id="rightJaw2_2_" cx="580.3" cy="217.1" r="0.8"/>
		<circle id="leftJaw3_2_" cx="668.5" cy="227" r="0.8"/>
		<circle id="leftJaw2_2_" cx="668.5" cy="217.4" r="0.8"/>
		<circle id="topMid_2_" cx="624.7" cy="166" r="0.8"/>
		<circle id="leftTop0_2_" cx="642.4" cy="168.5" r="0.8"/>
		<circle id="rightTop0_2_" cx="606.8" cy="168.5" r="0.8"/>
	</g>
	<rect x="531.8" y="319.9" class="st1" width="187.2" height="236.7"/>
	<circle class="st2" cx="620.3" cy="428.6" r="36"/>
	<line class="st3" x1="741.4" y1="564.8" x2="508.6" y2="564.8"/>
	<path class="st4" d="M616.2,277.5"/>
	<path class="st2" d="M614.2,265.7h20.9c0,0,4.3,61.7,5.7,85.2c-2.1,9.7-9.1,11.3-15.5,11.1c-8.2-0.2-15.9-4.7-17.1-12.5
		L614.2,265.7z"/>
	<path class="st1" d="M614.2,265.7h20.9c1.9,19-21.7,83.8-26.9,83.8L614.2,265.7z"/>
	<g>
		<path class="st1" d="M548.8,162.5c0,0,26.3,0,27.8,0c9.5,0,19,0,28.5,0c8.5,0,22.2,3.1,19.7-12.2c-1.9,0.4-4.3,0.6-5.6-1.1
			c-0.7-0.8-0.9-2-1.1-3.1c-0.9-4.6-1.2-10.3,2-13.3c1.7-1.6,4-2.1,6.2-2.2c2.7-0.2,5.6,0.1,7.5,2.2c1.8,1.9,2.4,4.9,2.5,7.6
			c0.1,2.5-0.1,5.2-1.3,7.3c-1.2,2.1-3.6,3.5-5.6,2.6c-0.3-0.1,1.8,9.5,3.7,11c3.6,2.7,9.7,1.2,13.8,1.2c10,0,20,0,30,0
			c10.1,0,20.2,0,30.3,0v130.8H548.8C548.8,293.3,548.8,162.5,548.8,162.5z"/>
		<rect x="563.2" y="176.9" class="st2" width="129.6" height="100.7"/>
		<circle id="jawMid_1_" cx="625.5" cy="284.1" r="0.8"/>
		<circle id="rightJaw7_1_" cx="614.6" cy="282.1" r="0.8"/>
		<circle id="leftJaw7_1_" cx="636.4" cy="282.1" r="0.8"/>
		<circle id="rightJaw3_1_" cx="580.3" cy="226.6" r="0.8"/>
		<circle id="rightJaw2_1_" cx="580.3" cy="217.1" r="0.8"/>
		<circle id="leftJaw3_1_" cx="668.5" cy="227" r="0.8"/>
		<circle id="leftJaw2_1_" cx="668.5" cy="217.4" r="0.8"/>
		<circle id="topMid_3_" cx="624.7" cy="166" r="0.8"/>
		<circle id="leftTop0_3_" cx="642.4" cy="168.5" r="0.8"/>
		<circle id="rightTop0_3_" cx="606.8" cy="168.5" r="0.8"/>
	</g>
	<g>
		<path class="st5" d="M578.7,221.9c3.1-6.1,13.1-6.7,21.1-6.1c0.7,2.3,0.7,3.8-0.1,3.7C596.6,219.4,589.5,215.6,578.7,221.9z"/>
		<circle id="rightBrow1_1_" cx="592.5" cy="203.2" r="0.8"/>
		<circle id="rightBrow4_1_" cx="615.8" cy="206.2" r="0.8"/>
		<circle id="rightBrow3_1_" cx="606" cy="202.2" r="0.8"/>
		<circle id="rightBrow0_1_" cx="588.5" cy="206.9" r="0.8"/>
		<circle id="rightBrow2_1_" cx="598.7" cy="202.2" r="0.8"/>
	</g>
	<g>
		<path class="st5" d="M666.7,220.8c-7.5-3.4-8.8-2.2-19-1c-0.3-0.8-0.5-1.7-0.1-4c6,0.5,16-2.3,21.1,6.1
			C668,221.5,667.4,221.1,666.7,220.8z"/>
		<circle id="leftBrow1_1_" cx="656.2" cy="203.6" r="0.8"/>
		<circle id="leftBrow4_1_" cx="632.6" cy="205.7" r="0.8"/>
		<circle id="leftBrow3_1_" cx="642.6" cy="202.5" r="0.8"/>
		<circle id="leftBrow0_1_" cx="660.2" cy="206.5" r="0.8"/>
		<circle id="leftBrow2_1_" cx="649.9" cy="202.1" r="0.8"/>
	</g>
	<g>
		<ellipse class="st6" cx="591.7" cy="232.4" rx="14.8" ry="12.6"/>
		<ellipse class="st5" cx="592" cy="231.7" rx="5.9" ry="5.9"/>
		<circle id="rightEye0_1_" cx="594.7" cy="215.1" r="0.8"/>
		<circle id="rightEye1_1_" cx="599.9" cy="211.4" r="0.8"/>
		<circle id="rightEye5_1_" cx="599.9" cy="217.4" r="0.8"/>
		<circle id="rightEye2_1_" cx="606.2" cy="211.4" r="0.8"/>
		<circle id="rightEye3_1_" cx="611.4" cy="215.6" r="0.8"/>
		<circle id="rightEye4_1_" cx="606.2" cy="216.6" r="0.8"/>
	</g>
	<g>
		<ellipse class="st6" cx="656.5" cy="233.2" rx="14.7" ry="12.9"/>
		<ellipse class="st5" cx="656.8" cy="231.6" rx="5.6" ry="5.8"/>
		<circle id="leftEye0_1_" cx="654.3" cy="215.1" r="0.8"/>
		<circle id="leftEye1_1_" cx="649.1" cy="211.4" r="0.8"/>
		<circle id="leftEye5_1_" cx="649.1" cy="217.4" r="0.8"/>
		<circle id="leftEye2_1_" cx="642.8" cy="211.4" r="0.8"/>
		<circle id="leftEye3_1_" cx="637.6" cy="215.6" r="0.8"/>
		<circle id="leftEye4_1_" cx="642.8" cy="216.6" r="0.8"/>
	</g>
	<g>
		<path id="rightMiddleLip_2_" d="M610.8,254.6c0.4,0,0.8,0.4,0.8,0.8s-0.4,0.8-0.8,0.8s-0.8-0.4-0.8-0.8S610.4,254.6,610.8,254.6z"
			/>
		<circle id="upperLipBottomMid_1_" cx="624.5" cy="255.1" r="0.8"/>
		<circle id="rightUpperLipBottom1_1_" cx="620.6" cy="254.6" r="0.8"/>
		<path id="leftMiddleLip_2_" d="M638.2,254.6c0.4,0,0.8,0.4,0.8,0.8s-0.4,0.8-0.8,0.8s-0.8-0.4-0.8-0.8S637.8,254.6,638.2,254.6z"
			/>
		<circle id="leftUpperLipBottom1_1_" cx="628.4" cy="254.6" r="0.8"/>
		<path class="st7" d="M611.6,255.4c0,0,7.4-0.2,12.9-0.2s13.9-0.1,13.9-0.1s-6.1,4-13.9,4C616.6,259.1,611.6,255.4,611.6,255.4z"/>
		<circle id="lowerLipTopMid_2_" cx="624.5" cy="258.1" r="0.8"/>
		<circle id="rightLowerLipTop0_2_" cx="620.6" cy="257.4" r="0.8"/>
		<circle id="leftLowerLipTop0_2_" cx="628.4" cy="257.4" r="0.8"/>
	</g>
	<g>
		<circle id="jawMid_3_" cx="625.5" cy="284.1" r="0.8"/>
		<circle id="rightJaw7_3_" cx="614.6" cy="282.1" r="0.8"/>
		<circle id="leftJaw7_3_" cx="636.4" cy="282.1" r="0.8"/>
		<circle id="rightJaw3_3_" cx="580.3" cy="226.6" r="0.8"/>
		<circle id="rightJaw2_3_" cx="580.3" cy="217.1" r="0.8"/>
		<circle id="leftJaw3_3_" cx="668.5" cy="227" r="0.8"/>
		<circle id="leftJaw2_3_" cx="668.5" cy="217.4" r="0.8"/>
		<circle id="topMid_1_" cx="624.7" cy="166" r="0.8"/>
		<circle id="leftTop0_1_" cx="642.4" cy="168.5" r="0.8"/>
		<circle id="rightTop0_1_" cx="606.8" cy="168.5" r="0.8"/>
	</g>
	<path class="st1" d="M412.8,324.3c-1,1.1-1.7,2.5-2,4.4c-1.1,5.8,0.7,13.7,1,19.6c0.4,6.8-1.6,20.7,1.4,26.6
		c3.3,6.5,15.5,5.5,23,4.3c7.4-1.2,14.7-4.9,18.4-11.4c2.3-4.1,3.4-9.3,7.4-11.8c1.2-0.8,2.6-1.2,4-1.5c11.7-2.9,16.9,1.8,21.7,11.1
		c4.9,9.5,13.7,17.2,23.6,21c7.8,3,14.9,5.1,21.5,10.3c0,0,48.7-50.2,48.7-50.2c-27.8-13.7-74.6-33.6-103.3-12.8
		c-4.8,3.4-9.9,8.4-15.5,6.7c-3.6-1.1-5.8-4.7-8.4-7.5c-5.5-6.1-13.5-9.3-21.6-10.5C425.5,321.4,416.8,319.7,412.8,324.3z"/>
	<path class="st1" d="M670.3,345.6c0,0,43.3,53.2,43.3,53.2c9.5,8.2,44.9-27.3,48.9-33.9c1.4-2.2,2.8-4.5,4.1-6.7
		c0.7-1.2,1.5-2.4,2.6-3.3c1.6-1.4,3.9-1.9,6-2c5.3-0.2,10.5,2.1,14.7,5.5c4.1,3.4,7.3,7.8,10.1,12.3c7.2,11.4,19.9,12.4,32.8,10.7
		c8.1-1,7.3-2.1,7.3-10.4c0-15.2-0.4-30.5,0.1-45.7c-10.6-0.4-21.4-1.3-32.1-1.1c-3.5,0.1-7.1,0.3-10,2.1
		c-4.6,2.7-6.7,8.5-11.1,11.5c-4.9,3.3-11.5,2.4-16.8-0.1c-5.3-2.5-9.7-6.5-14.6-9.7c-12-7.7-25.9-1.8-38.8,1.4
		C700.9,333.5,685.4,339,670.3,345.6z"/>
	<path class="st2" d="M415.6,322.1c-47.7,3.6-123.1,11.9-160.2,19.1c-37.1,7.1-40.1,53.8,5.3,53s95.2-4.7,159.7-16.2L415.6,322.1z"
		/>
	<path class="st2" d="M834.3,380.8c64.5,11.4,113.3,15.2,158.7,16c9.6,0.3,19.1-1.8,26.6-8c4.6-3.8,15.5-12.7,22.3-7
		c0.5,0.4,0.6,1,0.7,1.6c1.6,8.9,6.5,18.3,15.3,20.9c2.9,0.9,6,0.9,9.1,0.8c6.1,0,12.1,0,18.2,0c0.8,0,1.7,0,2.3-0.6
		c0.5-0.5,0.7-1.3,0.8-2c0.8-5.1,1.6-10.2,2.4-15.3c-0.2,1.6-27.5,2.5-27.2-10.5c0.1-3.1,2.1-5.8,4.6-7.5c2.6-1.7,5.6-2.4,8.6-2.9
		c4.7-0.8,10-1.5,14.6-0.2c0.6-1.2,4.6-15,4.1-15c-15.3-1.3-31.6-2.5-45,5.1c-4.4,2.5-8.7,7.1-7.4,12c-3.9-0.4-13.8,1.3-16.9-0.8
		c-2-1.4-3.5-7.5-5.1-9.7c-5.5-7.1-14-11.3-22.6-12.9c-37.1-7-114.5-15.2-162.2-18.8L834.3,380.8z"/>
	<g>
		<circle id="nose1_1_" cx="623.7" cy="216.1" r="0.8"/>
		<circle id="nose0_1_" cx="623.7" cy="210.3" r="0.8"/>
		<circle id="nose3_1_" cx="623.7" cy="228.7" r="0.8"/>
		<circle id="rightNose0_1_" cx="613" cy="233.2" r="0.8"/>
		<circle id="rightNose1_1_" cx="618.2" cy="233.2" r="0.8"/>
		<circle id="nose2_1_" cx="623.7" cy="221.6" r="0.8"/>
		<circle id="nose4_1_" cx="623.7" cy="234" r="0.8"/>
		<circle id="leftNose0_1_" cx="634.1" cy="233.2" r="0.8"/>
		<circle id="leftNose1_1_" cx="629.3" cy="233.2" r="0.8"/>
		<path class="st7" d="M622.4,232.8c-1.2,0-4.6,1.6-5.8,5.2c-0.2,1.2,0.6,5.8,6,4.1c-0.1-1-4.7-1.1-4.5-3.7
			C618.4,236.6,620.1,236.6,622.4,232.8z"/>
	</g>
</g>
<g id="skeleton_1_" class="st8">
	<polygon class="st9" points="518.8,349.5 569.1,565.3 685.5,564.5 731.7,349.5 	"/>
	<polyline class="st9" points="517.8,349.5 415.1,349.5 251.8,355.8 	"/>
	<polyline class="st9" points="733.2,349.1 836.4,349.1 999.7,355.5 	"/>
	<polyline class="st9" points="569.1,565.3 575.5,725.5 575.5,933.5 	"/>
	<polyline class="st9" points="685.5,564.5 685.5,725.5 685.5,933.5 	"/>
	<polyline class="st9" points="624.5,170 604.7,172.5 592.2,182 583.6,196.1 581.1,205.4 580.3,217.1 580.3,226.6 581.1,248.3 
		587.9,268.3 599.5,280.8 609.5,287.5 624.5,290.7 639.3,287.9 649.3,281.2 660.9,268.6 667.7,248.6 668.5,227 668.5,217.4 
		667.7,205.7 665.2,196.5 657,182 644.4,172.5 624.5,170 	"/>
	<polyline class="st9" points="588.5,206.9 592.5,203.2 598.7,202.2 606,202.2 615.8,206.2 	"/>
	<polygon class="st9" points="594.7,215.1 599.9,211.4 606.2,211.4 611.4,215.6 606.2,216.6 599.9,217.4 	"/>
	<polyline class="st9" points="613,233.2 618.2,233.2 623.7,234 623.7,228.7 623.7,221.6 623.7,216.1 623.7,210.3 	"/>
	<polyline class="st9" points="660,206.5 656,203.6 649.7,202.1 642.4,202.5 632.4,205.7 	"/>
	<polygon class="st9" points="654.1,215.1 648.8,211.4 642.5,211.4 637.4,215.6 642.5,216.6 648.8,217.4 	"/>
	<polyline class="st9" points="634.1,233.2 629.1,233.2 623.7,234 	"/>
	<polygon class="st9" points="607,255.3 613.9,251.9 620.4,250.8 624.5,251.7 628.7,250.8 635.1,251.9 642,255.3 635.6,261.6 
		628.5,264.4 624.5,264.9 620.4,264.4 613.4,261.6 	"/>
	<polyline class="st9" points="607,255.3 610.6,255.6 620.6,254.8 624.5,255.3 628.5,254.8 638.4,255.6 642,255.3 	"/>
	<polyline class="st9" points="607,255.3 610.6,255.6 620.6,257.7 624.5,258.5 628.5,257.7 638.4,255.6 642,255.3 	"/>
	<circle id="rightShoulder" class="st10" cx="518.9" cy="349.2" r="8.2"/>
	<circle id="rightElbow" class="st10" cx="415.4" cy="349.3" r="8.2"/>
	<circle id="rightWrist" class="st10" cx="252" cy="355.7" r="8.2"/>
	<circle id="rightHip" class="st10" cx="569.2" cy="565" r="8.2"/>
	<circle id="rightKnee" class="st10" cx="575.6" cy="725.2" r="8.2"/>
	<circle id="rightAnkle" class="st10" cx="575.6" cy="933.2" r="8.2"/>
	<circle id="leftElbow" class="st10" cx="836.2" cy="348.9" r="8.2"/>
	<circle id="leftWrist" class="st10" cx="999.6" cy="355.2" r="8.2"/>
	<circle id="leftHip" class="st10" cx="685.6" cy="564.2" r="8.2"/>
	<circle id="leftKnee" class="st10" cx="685.6" cy="725.2" r="8.2"/>
	<circle id="leftAnkle" class="st10" cx="685.6" cy="933.2" r="8.2"/>
	<circle id="rightEye0" class="st10" cx="594.7" cy="215.1" r="0.8"/>
	<circle id="rightBrow1" class="st10" cx="592.5" cy="203.2" r="0.8"/>
	<circle id="rightBrow4" class="st10" cx="615.8" cy="206.2" r="0.8"/>
	<circle id="nose1" class="st10" cx="623.7" cy="216.1" r="0.8"/>
	<circle id="rightBrow3" class="st10" cx="606" cy="202.2" r="0.8"/>
	<circle id="rightEye1" class="st10" cx="599.9" cy="211.4" r="0.8"/>
	<circle id="rightBrow0" class="st10" cx="588.5" cy="206.9" r="0.8"/>
	<circle id="rightBrow2" class="st10" cx="598.7" cy="202.2" r="0.8"/>
	<circle id="rightEye5" class="st10" cx="599.9" cy="217.4" r="0.8"/>
	<circle id="rightEye2" class="st10" cx="606.2" cy="211.4" r="0.8"/>
	<circle id="rightEye3" class="st10" cx="611.4" cy="215.6" r="0.8"/>
	<circle id="nose0" class="st10" cx="623.7" cy="210.3" r="0.8"/>
	<circle id="nose3" class="st10" cx="623.7" cy="228.7" r="0.8"/>
	<circle id="rightNose0" class="st10" cx="613" cy="233.2" r="0.8"/>
	<circle id="rightMouthCorner" class="st10" cx="607" cy="255.3" r="0.8"/>
	<circle id="rightNose1" class="st10" cx="618.2" cy="233.2" r="0.8"/>
	<circle id="rightUpperLipTop0" class="st10" cx="613.9" cy="251.9" r="0.8"/>
	<circle id="nose2" class="st10" cx="623.7" cy="221.6" r="0.8"/>
	<circle id="nose4" class="st10" cx="623.7" cy="234" r="0.8"/>
	<circle id="upperLipTopMid" class="st10" cx="624.5" cy="251.7" r="0.8"/>
	<circle id="rightUpperLipTop1" class="st10" cx="620.4" cy="250.8" r="0.8"/>
	<path id="rightMiddleLip" class="st10" d="M610.6,254.8c0.4,0,0.8,0.4,0.8,0.8c0,0.4-0.4,0.8-0.8,0.8s-0.8-0.4-0.8-0.8
		S610.2,254.8,610.6,254.8z"/>
	<circle id="lowerLipBottomMid" class="st10" cx="624.5" cy="264.9" r="0.8"/>
	<circle id="upperLipBottomMid" class="st10" cx="624.5" cy="255.3" r="0.8"/>
	<circle id="lowerLipTopMid" class="st10" cx="624.5" cy="258.4" r="0.8"/>
	<circle id="rightUpperLipBottom1" class="st10" cx="620.6" cy="254.8" r="0.8"/>
	<circle id="rightLowerLipTop0" class="st10" cx="620.6" cy="257.7" r="0.8"/>
	<circle id="rightLowerLipBottom1" class="st10" cx="620.4" cy="264.4" r="0.8"/>
	<circle id="rightLowerLipBottom0" class="st10" cx="613.4" cy="261.6" r="0.8"/>
	<circle id="rightEye4" class="st10" cx="606.2" cy="216.6" r="0.8"/>
	<circle id="jawMid" class="st10" cx="624.5" cy="290.7" r="0.8"/>
	<circle id="rightJaw7" class="st10" cx="609.5" cy="287.5" r="0.8"/>
	<circle id="rightJaw6" class="st10" cx="599.5" cy="280.8" r="0.8"/>
	<circle id="rightJaw5" class="st10" cx="587.9" cy="268.3" r="0.8"/>
	<circle id="rightJaw4" class="st10" cx="581.1" cy="248.3" r="0.8"/>
	<circle id="rightJaw3" class="st10" cx="580.3" cy="226.6" r="0.8"/>
	<circle id="rightJaw2" class="st10" cx="580.3" cy="217.1" r="0.8"/>
	<circle id="rightJaw1" class="st10" cx="581.1" cy="205.4" r="0.8"/>
	<circle id="rightJaw0" class="st10" cx="583.6" cy="196.1" r="0.8"/>
	<circle id="topMid" class="st10" cx="624.7" cy="170" r="0.8"/>
	<circle id="leftTop0" class="st10" cx="644.4" cy="172.5" r="0.8"/>
	<circle id="leftTop1" class="st10" cx="657" cy="182" r="0.8"/>
	<circle id="leftEye0" class="st10" cx="654.3" cy="215.1" r="0.8"/>
	<circle id="leftBrow1" class="st10" cx="656.2" cy="203.6" r="0.8"/>
	<circle id="leftBrow4" class="st10" cx="632.6" cy="205.7" r="0.8"/>
	<circle id="leftBrow3" class="st10" cx="642.6" cy="202.5" r="0.8"/>
	<circle id="leftEye1" class="st10" cx="649.1" cy="211.4" r="0.8"/>
	<circle id="leftBrow0" class="st10" cx="660.2" cy="206.5" r="0.8"/>
	<circle id="leftBrow2" class="st10" cx="649.9" cy="202.1" r="0.8"/>
	<circle id="leftEye5" class="st10" cx="649.1" cy="217.4" r="0.8"/>
	<circle id="leftEye2" class="st10" cx="642.8" cy="211.4" r="0.8"/>
	<circle id="leftEye3" class="st10" cx="637.6" cy="215.6" r="0.8"/>
	<circle id="leftNose0" class="st10" cx="634.1" cy="233.2" r="0.8"/>
	<circle id="leftMouthCorner" class="st10" cx="642" cy="255.3" r="0.8"/>
	<circle id="leftNose1" class="st10" cx="629.3" cy="233.2" r="0.8"/>
	<circle id="leftUpperLipTop0" class="st10" cx="635.1" cy="251.9" r="0.8"/>
	<circle id="leftUpperLipTop1" class="st10" cx="628.7" cy="250.8" r="0.8"/>
	<path id="leftMiddleLip" class="st10" d="M638.4,254.8c0.4,0,0.8,0.4,0.8,0.8c0,0.4-0.4,0.8-0.8,0.8s-0.8-0.4-0.8-0.8
		S638,254.8,638.4,254.8z"/>
	<circle id="leftUpperLipBottom1" class="st10" cx="628.5" cy="254.8" r="0.8"/>
	<circle id="leftLowerLipTop0" class="st10" cx="628.5" cy="257.7" r="0.8"/>
	<circle id="leftLowerLipBottom1" class="st10" cx="628.7" cy="264.4" r="0.8"/>
	<circle id="leftLowerLipBottom0" class="st10" cx="635.6" cy="261.6" r="0.8"/>
	<circle id="leftEye4" class="st10" cx="642.8" cy="216.6" r="0.8"/>
	<circle id="leftJaw7" class="st10" cx="639.3" cy="287.9" r="0.8"/>
	<circle id="leftJaw6" class="st10" cx="649.3" cy="281.2" r="0.8"/>
	<circle id="leftJaw5" class="st10" cx="660.9" cy="268.6" r="0.8"/>
	<circle id="leftJaw4" class="st10" cx="667.7" cy="248.6" r="0.8"/>
	<circle id="leftJaw3" class="st10" cx="668.5" cy="227" r="0.8"/>
	<circle id="leftJaw2" class="st10" cx="668.5" cy="217.4" r="0.8"/>
	<circle id="leftJaw1" class="st10" cx="667.7" cy="205.7" r="0.8"/>
	<circle id="leftJaw0" class="st10" cx="665.2" cy="196.5" r="0.8"/>
	<circle id="rightTop0" class="st10" cx="604.8" cy="172.5" r="0.8"/>
	<circle id="rightTop1" class="st10" cx="592.2" cy="182" r="0.8"/>
	<circle id="leftShoulder" class="st10" cx="731.8" cy="349.2" r="8.2"/>
</g>
</svg>
