<?xml version="1.0" encoding="utf-8"?>
<!-- Generator: Adobe Illustrator 16.0.3, SVG Export Plug-In . SVG Version: 6.00 Build 0)  -->
<!DOCTYPE svg PUBLIC "-//W3C//DTD SVG 1.1//EN" "http://www.w3.org/Graphics/SVG/1.1/DTD/svg11.dtd">
<svg version="1.1" id="Grupo" xmlns="http://www.w3.org/2000/svg" xmlns:xlink="http://www.w3.org/1999/xlink" x="0px" y="0px"
	 width="612px" height="792px" viewBox="0 0 612 792" enable-background="new 0 0 612 792" xml:space="preserve">
<g id="skeleton_1_" display="none">
	<polygon display="inline" fill="none" stroke="#000000" stroke-miterlimit="10" points="264.588,268.245 290.241,378.303 
		349.605,377.895 373.167,268.245 	"/>
	<polyline display="inline" fill="none" stroke="#000000" stroke-miterlimit="10" points="264.078,268.245 211.701,268.245 
		128.418,271.458 	"/>
	<polyline display="inline" fill="none" stroke="#000000" stroke-miterlimit="10" points="373.932,268.041 426.564,268.041 
		509.847,271.305 	"/>
	<polyline display="inline" fill="none" stroke="#000000" stroke-miterlimit="10" points="290.241,378.303 293.505,460.005 
		293.505,566.085 	"/>
	<polyline display="inline" fill="none" stroke="#000000" stroke-miterlimit="10" points="349.605,377.895 349.605,460.005 
		349.605,566.085 	"/>
	<polyline display="inline" fill="none" stroke="#000000" stroke-miterlimit="10" points="318.495,176.7 308.397,177.975 
		302.022,182.82 297.636,190.011 296.361,194.754 295.953,200.721 295.953,205.566 296.361,216.633 299.829,226.833 
		305.745,233.208 310.845,236.625 318.495,238.257 326.043,236.829 331.143,233.412 337.059,226.986 340.527,216.786 
		340.935,205.77 340.935,200.874 340.527,194.907 339.252,190.215 335.07,182.82 328.644,177.975 318.495,176.7 	"/>
	<polyline display="inline" fill="none" stroke="#000000" stroke-miterlimit="10" points="300.135,195.519 302.175,193.632 
		305.337,193.122 309.06,193.122 314.058,195.162 	"/>
	<polygon display="inline" fill="none" stroke="#000000" stroke-miterlimit="10" points="303.297,199.701 305.949,197.814 
		309.162,197.814 311.814,199.956 309.162,200.466 305.949,200.874 	"/>
	<polyline display="inline" fill="none" stroke="#000000" stroke-miterlimit="10" points="312.63,208.932 315.282,208.932 
		318.087,209.34 318.087,206.637 318.087,203.016 318.087,200.211 318.087,197.253 	"/>
	<polyline display="inline" fill="none" stroke="#000000" stroke-miterlimit="10" points="336.6,195.315 334.56,193.836 
		331.347,193.071 327.624,193.275 322.524,194.907 	"/>
	<polygon display="inline" fill="none" stroke="#000000" stroke-miterlimit="10" points="333.591,199.701 330.888,197.814 
		327.675,197.814 325.074,199.956 327.675,200.466 330.888,200.874 	"/>
	<polyline display="inline" fill="none" stroke="#000000" stroke-miterlimit="10" points="323.391,208.932 320.841,208.932 
		318.087,209.34 	"/>
	<polygon display="inline" fill="none" stroke="#000000" stroke-miterlimit="10" points="309.57,220.203 313.089,218.469 
		316.404,217.908 318.495,218.367 320.637,217.908 323.901,218.469 327.42,220.203 324.156,223.416 320.535,224.844 
		318.495,225.099 316.404,224.844 312.834,223.416 	"/>
	<polyline display="inline" fill="none" stroke="#000000" stroke-miterlimit="10" points="309.57,220.203 311.406,220.356 
		316.506,219.948 318.495,220.203 320.535,219.948 325.584,220.356 327.42,220.203 	"/>
	<polyline display="inline" fill="none" stroke="#000000" stroke-miterlimit="10" points="309.57,220.203 311.406,220.356 
		316.506,221.427 318.495,221.835 320.535,221.427 325.584,220.356 327.42,220.203 	"/>
	<circle id="rightShoulder" display="inline" cx="264.639" cy="268.092" r="4.182"/>
	<circle id="rightElbow" display="inline" cx="211.854" cy="268.143" r="4.182"/>
	<circle id="rightWrist" display="inline" cx="128.52" cy="271.407" r="4.182"/>
	<circle id="rightHip" display="inline" cx="290.292" cy="378.15" r="4.182"/>
	<circle id="rightKnee" display="inline" cx="293.556" cy="459.852" r="4.182"/>
	<circle id="rightAnkle" display="inline" cx="293.556" cy="565.932" r="4.182"/>
	<circle id="leftElbow" display="inline" cx="426.462" cy="267.939" r="4.182"/>
	<circle id="leftWrist" display="inline" cx="509.796" cy="271.152" r="4.182"/>
	<circle id="leftHip" display="inline" cx="349.656" cy="377.742" r="4.182"/>
	<circle id="leftKnee" display="inline" cx="349.656" cy="459.852" r="4.182"/>
	<circle id="leftAnkle" display="inline" cx="349.656" cy="565.932" r="4.182"/>
	<circle id="rightEye0" display="inline" cx="303.297" cy="199.701" r="0.408"/>
	<circle id="rightBrow1" display="inline" cx="302.175" cy="193.632" r="0.408"/>
	<circle id="rightBrow4" display="inline" cx="314.058" cy="195.162" r="0.408"/>
	<circle id="nose1" display="inline" cx="318.087" cy="200.211" r="0.408"/>
	<circle id="rightBrow3" display="inline" cx="309.06" cy="193.122" r="0.408"/>
	<circle id="rightEye1" display="inline" cx="305.949" cy="197.814" r="0.408"/>
	<circle id="rightBrow0" display="inline" cx="300.135" cy="195.519" r="0.408"/>
	<circle id="rightBrow2" display="inline" cx="305.337" cy="193.122" r="0.408"/>
	<circle id="rightEye5" display="inline" cx="305.949" cy="200.874" r="0.408"/>
	<circle id="rightEye2" display="inline" cx="309.162" cy="197.814" r="0.408"/>
	<circle id="rightEye3" display="inline" cx="311.814" cy="199.956" r="0.408"/>
	<circle id="nose0" display="inline" cx="318.087" cy="197.253" r="0.408"/>
	<circle id="nose3" display="inline" cx="318.087" cy="206.637" r="0.408"/>
	<circle id="rightNose0" display="inline" cx="312.63" cy="208.932" r="0.408"/>
	<circle id="rightMouthCorner" display="inline" cx="309.57" cy="220.203" r="0.408"/>
	<circle id="rightNose1" display="inline" cx="315.282" cy="208.932" r="0.408"/>
	<circle id="rightUpperLipTop0" display="inline" cx="313.089" cy="218.469" r="0.408"/>
	<circle id="nose2" display="inline" cx="318.087" cy="203.016" r="0.408"/>
	<circle id="nose4" display="inline" cx="318.087" cy="209.34" r="0.408"/>
	<circle id="upperLipTopMid" display="inline" cx="318.495" cy="218.367" r="0.408"/>
	<circle id="rightUpperLipTop1" display="inline" cx="316.404" cy="217.908" r="0.408"/>
	<path id="rightMiddleLip" display="inline" d="M311.406,219.948c0.204,0,0.408,0.204,0.408,0.408s-0.204,0.408-0.408,0.408
		s-0.408-0.204-0.408-0.408S311.202,219.948,311.406,219.948z"/>
	<circle id="lowerLipBottomMid" display="inline" cx="318.495" cy="225.099" r="0.408"/>
	<circle id="upperLipBottomMid" display="inline" cx="318.495" cy="220.203" r="0.408"/>
	<circle id="lowerLipTopMid" display="inline" cx="318.495" cy="221.784" r="0.408"/>
	<circle id="rightUpperLipBottom1" display="inline" cx="316.506" cy="219.948" r="0.408"/>
	<circle id="rightLowerLipTop0" display="inline" cx="316.506" cy="221.427" r="0.408"/>
	<circle id="rightLowerLipBottom1" display="inline" cx="316.404" cy="224.844" r="0.408"/>
	<circle id="rightLowerLipBottom0" display="inline" cx="312.834" cy="223.416" r="0.408"/>
	<circle id="rightEye4" display="inline" cx="309.162" cy="200.466" r="0.408"/>
	<circle id="jawMid" display="inline" cx="318.495" cy="238.257" r="0.408"/>
	<circle id="rightJaw7" display="inline" cx="310.845" cy="236.625" r="0.408"/>
	<circle id="rightJaw6" display="inline" cx="305.745" cy="233.208" r="0.408"/>
	<circle id="rightJaw5" display="inline" cx="299.829" cy="226.833" r="0.408"/>
	<circle id="rightJaw4" display="inline" cx="296.361" cy="216.633" r="0.408"/>
	<circle id="rightJaw3" display="inline" cx="295.953" cy="205.566" r="0.408"/>
	<circle id="rightJaw2" display="inline" cx="295.953" cy="200.721" r="0.408"/>
	<circle id="rightJaw1" display="inline" cx="296.361" cy="194.754" r="0.408"/>
	<circle id="rightJaw0" display="inline" cx="297.636" cy="190.011" r="0.408"/>
	<circle id="topMid" display="inline" cx="318.597" cy="176.7" r="0.408"/>
	<circle id="leftTop0" display="inline" cx="328.644" cy="177.975" r="0.408"/>
	<circle id="leftTop1" display="inline" cx="335.07" cy="182.82" r="0.408"/>
	<circle id="leftEye0" display="inline" cx="333.693" cy="199.701" r="0.408"/>
	<circle id="leftBrow1" display="inline" cx="334.662" cy="193.836" r="0.408"/>
	<circle id="leftBrow4" display="inline" cx="322.626" cy="194.907" r="0.408"/>
	<circle id="leftBrow3" display="inline" cx="327.726" cy="193.275" r="0.408"/>
	<circle id="leftEye1" display="inline" cx="331.041" cy="197.814" r="0.408"/>
	<circle id="leftBrow0" display="inline" cx="336.702" cy="195.315" r="0.408"/>
	<circle id="leftBrow2" display="inline" cx="331.449" cy="193.071" r="0.408"/>
	<circle id="leftEye5" display="inline" cx="331.041" cy="200.874" r="0.408"/>
	<circle id="leftEye2" display="inline" cx="327.828" cy="197.814" r="0.408"/>
	<circle id="leftEye3" display="inline" cx="325.176" cy="199.956" r="0.408"/>
	<circle id="leftNose0" display="inline" cx="323.391" cy="208.932" r="0.408"/>
	<circle id="leftMouthCorner" display="inline" cx="327.42" cy="220.203" r="0.408"/>
	<circle id="leftNose1" display="inline" cx="320.943" cy="208.932" r="0.408"/>
	<circle id="leftUpperLipTop0" display="inline" cx="323.901" cy="218.469" r="0.408"/>
	<circle id="leftUpperLipTop1" display="inline" cx="320.637" cy="217.908" r="0.408"/>
	<path id="leftMiddleLip" display="inline" d="M325.584,219.948c0.204,0,0.408,0.204,0.408,0.408s-0.204,0.408-0.408,0.408
		s-0.408-0.204-0.408-0.408S325.38,219.948,325.584,219.948z"/>
	<circle id="leftUpperLipBottom1" display="inline" cx="320.535" cy="219.948" r="0.408"/>
	<circle id="leftLowerLipTop0" display="inline" cx="320.535" cy="221.427" r="0.408"/>
	<circle id="leftLowerLipBottom1" display="inline" cx="320.637" cy="224.844" r="0.408"/>
	<circle id="leftLowerLipBottom0" display="inline" cx="324.156" cy="223.416" r="0.408"/>
	<circle id="leftEye4" display="inline" cx="327.828" cy="200.466" r="0.408"/>
	<circle id="leftJaw7" display="inline" cx="326.043" cy="236.829" r="0.408"/>
	<circle id="leftJaw6" display="inline" cx="331.143" cy="233.412" r="0.408"/>
	<circle id="leftJaw5" display="inline" cx="337.059" cy="226.986" r="0.408"/>
	<circle id="leftJaw4" display="inline" cx="340.527" cy="216.786" r="0.408"/>
	<circle id="leftJaw3" display="inline" cx="340.935" cy="205.77" r="0.408"/>
	<circle id="leftJaw2" display="inline" cx="340.935" cy="200.874" r="0.408"/>
	<circle id="leftJaw1" display="inline" cx="340.527" cy="194.907" r="0.408"/>
	<circle id="leftJaw0" display="inline" cx="339.252" cy="190.215" r="0.408"/>
	<circle id="rightTop0" display="inline" cx="308.448" cy="177.975" r="0.408"/>
	<circle id="rightTop1" display="inline" cx="302.022" cy="182.82" r="0.408"/>
	<circle id="leftShoulder" display="inline" cx="373.218" cy="268.092" r="4.182"/>
</g>
<linearGradient id="SVGID_1_" gradientUnits="userSpaceOnUse" x1="566.7773" y1="418.9131" x2="573.7998" y2="418.9131">
	<stop  offset="0" style="stop-color:#FFFFFF"/>
	<stop  offset="1" style="stop-color:#000000"/>
</linearGradient>
<path fill-rule="evenodd" clip-rule="evenodd" fill="url(#SVGID_1_)" d="M570.08,400.637c5.229,12.686,5.643,24.814-3.303,36.553"/>
</svg>
